<svg width="901" height="882" viewBox="0 0 901 882" fill="none" xmlns="http://www.w3.org/2000/svg">
<path d="M0 659.077L30.5324 865.038H39.3314V743.885L28.1567 16.9615H0V138.115H21.0295L30.0925 726.923L0 523.385V659.077Z" fill="white"/>
<path d="M75.2167 523.385L52.9553 720.865V193.846L75.2167 523.385ZM81.376 613.038L98.446 865.038H110.501L52.9553 16.9615H44.1564V865.038H52.9553L81.376 613.038Z" fill="white"/>
<path d="M121.529 238.673C121.529 173.25 125.4 119.942 130.152 119.942C134.815 119.942 138.687 173.25 138.687 238.673C138.687 304.096 134.815 357.404 130.152 357.404C125.4 357.404 121.529 304.096 121.529 238.673ZM121.529 865.038V447.058C124.08 467.654 126.984 478.558 130.152 478.558C139.743 478.558 147.486 370.731 147.486 238.673C147.486 106.615 139.743 0 130.152 0C126.984 0 124.08 10.9038 121.529 31.5V16.9615H112.73V865.038H121.529Z" fill="white"/>
<path d="M184.265 523.385L162.004 720.865V193.846L184.265 523.385ZM190.425 613.038L207.495 865.038H219.549L162.004 16.9615H153.205V865.038H162.004L190.425 613.038Z" fill="white"/>
<path d="M217.379 865.038H226.794L245.184 190.212L263.486 865.038H278.444V16.9615H269.645V745.096L249.847 16.9615H240.432L217.379 865.038Z" fill="white"/>
<path d="M334.64 882V760.846C321.794 760.846 311.411 617.885 311.411 441C311.411 264.115 321.794 121.154 334.64 121.154C347.487 121.154 357.87 264.115 357.87 441V442.212H366.669V441C366.669 197.481 352.326 0 334.64 0C316.954 0 302.612 197.481 302.612 441C302.612 684.519 316.954 882 334.64 882Z" fill="white"/>
<path d="M382.01 16.9615H371.1L406.383 679.673V743.885H372.683V865.038H415.182V16.9615H406.383V474.923L382.01 16.9615Z" fill="white"/>
<path d="M431.06 513.692H456.929C461.504 513.692 465.288 565.788 465.288 628.788C465.288 691.788 461.504 743.885 456.929 743.885H431.06V513.692ZM431.06 392.538V138.115H447.602V392.538H431.06ZM457.017 865.038C466.432 865.038 474.087 759.635 474.087 630C474.087 497.942 466.432 392.538 457.017 392.538H456.929V16.9615H422.261V865.038H457.017Z" fill="white"/>
<path d="M486.787 385.269C488.459 254.423 495.85 151.442 505.265 127.212V385.269H486.787ZM514.064 3.63464C512.656 1.21152 511.16 0 509.664 0C491.978 0 477.636 197.481 477.636 441C477.636 684.519 491.978 882 509.664 882C525.766 882 539.053 718.442 541.34 506.423H532.365C530.254 651.808 520.839 760.846 509.664 760.846C498.489 760.846 489.075 651.808 486.963 506.423H514.064V3.63464Z" fill="white"/>
<path d="M563.597 357.404C558.845 357.404 554.974 304.096 554.974 238.673C554.974 173.25 558.845 119.942 563.597 119.942C568.26 119.942 572.132 173.25 572.132 238.673C572.132 304.096 568.26 357.404 563.597 357.404ZM596.857 865.038L568.172 470.077C575.564 442.212 580.931 348.923 580.931 238.673C580.931 106.615 573.188 0 563.597 0C560.429 0 557.526 10.9038 554.974 31.5V16.9615H546.175V865.038H554.974V460.385L584.362 865.038H596.857Z" fill="white"/>
<path d="M625.069 138.115L645.57 743.885L620.581 545.192L616.182 649.385L643.283 865.038H655.425V748.731L634.748 138.115L659.737 336.808L664.136 232.615L637.035 16.9615H625.069V138.115Z" fill="white"/>
<path d="M679.426 16.9615H668.515L703.799 679.673V743.885H670.099V865.038H712.598V16.9615H703.799V474.923L679.426 16.9615Z" fill="white"/>
<path d="M715.277 865.038H724.691L743.081 190.212L761.383 865.038H776.341V16.9615H767.542V745.096L747.745 16.9615H738.33L715.277 865.038Z" fill="white"/>
<path d="M787.002 743.885V865.038H798.968L826.069 649.385L821.67 545.192L796.681 743.885L817.094 138.115H839.796V16.9615H783.834V138.115H807.503L787.002 743.885Z" fill="white"/>
<path d="M845.567 865.038H854.366V501.577L892.201 450.692V865.038H901V16.9615H892.201V328.327L854.366 381.635V16.9615H845.567V865.038Z" fill="white"/>
</svg>
