<svg width="326" height="159" viewBox="0 0 326 159" fill="none" xmlns="http://www.w3.org/2000/svg">
<path fill-rule="evenodd" clip-rule="evenodd" d="M137.344 57.5667C130.476 54.3544 121.643 52.0949 110.833 52.4949L137.344 57.5667ZM145.141 72.4791L110.833 52.4949C111.225 53.0228 111.476 53.9575 111.792 55.1338C112.767 58.764 114.359 64.6954 122.624 68.0718C130.017 71.092 138.52 71.8711 143.866 72.361C144.314 72.402 144.74 72.441 145.141 72.4791ZM190.715 67.7771C177.893 67.7771 165.548 68.9597 153.987 70.8604C151.559 67.2015 146.019 61.6241 137.344 57.5667L190.715 67.7771ZM0.385609 98.9952C2.02514 98.0632 4.6393 95.9193 4.42154 93.3062C5.79713 92.6185 8.13563 90.4175 6.48492 87.1161C7.76226 86.2318 9.84529 83.7557 7.95877 80.9259C9.13785 80.3364 11.1423 78.3909 9.72739 75.3253C10.7099 75.0305 12.3803 73.6157 11.2012 70.3142C21.6999 66.9119 48.5865 67.8182 72.9075 98.2095C75.6787 96.6548 92.8674 87.2857 118.357 79.3487L118.357 79.3486C119.746 78.9159 121.16 78.4875 122.598 78.0649C129.591 76.0095 137.143 74.0901 145.141 72.4791L190.715 67.7771L190.716 67.777C198.791 67.777 206.677 67.8537 214.297 68.0367C217.045 68.1026 219.76 68.1824 222.435 68.2774C221.998 66.1514 219.744 61.026 208.985 58.1177C198.824 55.3709 197.13 44.1545 197.554 38.8897C245.778 28.9406 255.372 61.046 257.581 70.8081C270.87 72.4201 282.198 74.805 290.805 78.2557C291.232 76.9633 292.45 76.0306 293.885 76.0306C295.676 76.0306 297.127 77.4823 297.127 79.273C297.127 79.904 296.947 80.4928 296.635 80.9909C297.185 81.2942 297.717 81.604 298.232 81.9206C305.094 86.1359 308.918 91.5388 308.918 98.4331C308.918 105.403 305.009 110.849 298.004 115.085C297.688 115.276 297.366 115.464 297.037 115.651C297.096 115.895 297.127 116.151 297.127 116.414C297.127 118.205 295.676 119.656 293.885 119.656C292.843 119.656 291.915 119.165 291.322 118.401C290.292 118.824 289.222 119.232 288.112 119.624C279.839 122.553 269.403 124.634 257.368 126.084C254.78 136.774 244.371 166.751 197.554 157.092C197.13 151.827 198.824 140.611 208.985 137.864C218.444 135.307 221.329 131.037 222.185 128.598C212.166 128.949 201.613 129.089 190.716 129.089L190.715 129.089C190.418 129.089 190.122 129.088 189.826 129.087C177.322 129.034 165.281 127.862 153.987 126.006C149.637 132.561 135.296 145.276 110.833 144.371C111.225 143.843 111.476 142.909 111.792 141.732C112.767 138.102 114.359 132.171 122.624 128.794C130.017 125.774 138.52 124.995 143.866 124.505L143.87 124.505C144.316 124.464 144.741 124.425 145.14 124.387C139.562 123.263 134.201 121.99 129.096 120.625V120.625C117.324 117.478 106.912 113.844 98.3312 110.44L98.3314 110.439C85.2476 105.249 76.424 100.592 73.5403 99.0077L73.6923 99.2016C61.7561 92.4508 30.4524 83.0111 0.385609 98.9952ZM0 99.2016C0.120388 99.1414 0.249645 99.0725 0.385609 98.9952C0.25705 99.0635 0.128513 99.1324 0 99.2016Z" fill="#151515" fill-opacity="0.1"/>
<path d="M127.091 15.4949C152.527 14.5537 167.02 28.3379 170.717 34.6123L165.171 36.0829C163.199 35.1025 149.825 35.5423 138.882 31.0718C127.938 26.6013 128.693 17.6517 127.091 15.4949Z" fill="url(#paint0_linear_179_563)"/>
<path d="M127.091 107.371C152.527 108.312 167.02 94.5282 170.717 88.2538L165.171 86.7832C163.199 87.7636 149.825 87.3237 138.882 91.7943C127.938 96.2648 128.693 105.214 127.091 107.371Z" fill="url(#paint1_linear_179_563)"/>
<path d="M213.811 1.8897C262.39 -8.13246 271.769 24.52 273.886 34.0196C265.136 34.0196 238.792 32.9292 238.792 32.1052C238.792 31.0751 237.945 24.5513 225.243 21.1177C215.081 18.3709 213.388 7.15452 213.811 1.8897Z" fill="url(#paint2_linear_179_563)"/>
<path d="M213.811 120.092C262.39 130.114 271.769 97.4619 273.886 87.9624C265.136 87.9624 238.792 89.0527 238.792 89.8768C238.792 90.9068 237.945 97.4306 225.243 100.864C215.081 103.611 213.388 114.827 213.811 120.092Z" fill="url(#paint3_linear_179_563)"/>
<path d="M325.176 61.433C325.176 87.078 272.255 92.0891 206.973 92.0891C141.692 92.0891 88.771 61.433 88.771 61.433C88.771 61.433 141.692 30.777 206.973 30.777C272.255 30.777 325.176 35.7881 325.176 61.433Z" fill="#3D3D3D"/>
<path fill-rule="evenodd" clip-rule="evenodd" d="M230.555 31.0366C222.935 30.8537 215.049 30.777 206.973 30.777C179.714 30.777 154.61 36.1221 134.615 42.3485C139.872 45.7877 145.434 48.4632 152.736 48.4632C160.868 48.4632 164.271 44.8958 167.214 41.8102C169.819 39.0797 172.063 36.7264 176.907 37.5567C181.315 38.3123 182.387 41.3814 183.456 44.4424C184.889 48.5463 186.317 52.6356 195.772 51.1161C201.275 50.2318 206.973 50.2318 212.126 50.2318C222.432 50.2318 230.555 50.2318 230.555 43.1573V31.0366ZM114.589 73.4397C123.17 76.8439 133.583 80.4777 145.354 83.6249C145.395 82.1889 144.838 80.4277 143.008 77.9401C135.639 67.918 127.68 61.433 122.08 64.9703C120.19 66.1635 118.603 68.2625 116.955 70.4412L116.955 70.4412C116.192 71.451 115.415 72.4779 114.589 73.4397ZM206.084 92.0872C206.38 92.0884 206.676 92.089 206.973 92.089C230.878 92.089 253.126 91.4171 271.725 89.3061C270.928 88.6315 270.14 87.9507 269.357 87.2745C262.414 81.2788 255.893 75.6477 247.946 77.9401C238.199 80.7517 232.505 82.133 226.77 83.5241L226.77 83.5242L226.77 83.5242C223.486 84.3207 220.189 85.1204 216.111 86.1937C208.692 88.1459 208.256 88.8052 206.238 91.8539C206.188 91.9302 206.136 92.0079 206.084 92.0872ZM304.371 82.6243C317.493 77.98 325.176 71.2043 325.176 61.433C325.176 40.946 291.402 33.6275 244.533 31.5123C247.198 34.3175 248.81 37.119 247.946 39.3253C247.177 41.2909 245.144 43.9502 243.026 46.7214L243.026 46.7216C237.838 53.5089 232.137 60.9673 243.23 60.5487C251.29 60.2446 256.604 56.2526 261.115 52.864C265.348 49.6846 268.873 47.0363 273.296 48.4632C276.095 49.3661 278.812 50.9328 281.445 52.4517C287.408 55.8913 292.945 59.0854 298.057 53.769C305.426 46.105 313.385 62.6121 307.195 72.0447C305.24 75.0236 304.726 78.8255 304.371 82.6243Z" fill="#FF550E"/>
<path d="M16.6434 61.9952C46.7102 46.0112 78.0139 55.4508 89.9501 62.2017C65.4253 30.8382 38.0707 29.8753 27.459 33.3143C28.6381 36.6157 26.9678 38.0306 25.9852 38.3253C27.4001 41.3909 25.3957 43.3364 24.2166 43.926C26.1031 46.7557 24.0201 49.2318 22.7427 50.1161C24.3934 53.4175 22.0549 55.6185 20.6794 56.3063C20.8971 58.9194 18.283 61.0633 16.6434 61.9952C16.5149 62.0636 16.3863 62.1324 16.2578 62.2017C16.3782 62.1415 16.5075 62.0725 16.6434 61.9952Z" fill="url(#paint4_linear_179_563)"/>
<circle cx="310.142" cy="42.273" r="3.24246" fill="black"/>
<circle cx="310.143" cy="79.414" r="3.24246" fill="black"/>
<defs>
<linearGradient id="paint0_linear_179_563" x1="168.498" y1="35.2006" x2="117.844" y2="-1.70637" gradientUnits="userSpaceOnUse">
<stop stop-color="white"/>
<stop offset="1" stop-color="white" stop-opacity="0"/>
</linearGradient>
<linearGradient id="paint1_linear_179_563" x1="168.498" y1="87.6655" x2="117.844" y2="124.572" gradientUnits="userSpaceOnUse">
<stop stop-color="white"/>
<stop offset="1" stop-color="white" stop-opacity="0"/>
</linearGradient>
<linearGradient id="paint2_linear_179_563" x1="253.252" y1="32.5457" x2="199.604" y2="-9.60631" gradientUnits="userSpaceOnUse">
<stop stop-color="white"/>
<stop offset="1" stop-color="white" stop-opacity="0"/>
</linearGradient>
<linearGradient id="paint3_linear_179_563" x1="253.252" y1="89.4362" x2="198.13" y2="132.178" gradientUnits="userSpaceOnUse">
<stop stop-color="white"/>
<stop offset="1" stop-color="white" stop-opacity="0"/>
</linearGradient>
<linearGradient id="paint4_linear_179_563" x1="89.9501" y1="62.0226" x2="-14.3982" y2="38.4411" gradientUnits="userSpaceOnUse">
<stop stop-color="white"/>
<stop offset="1" stop-color="white" stop-opacity="0"/>
</linearGradient>
</defs>
</svg>
