<svg width="329" height="154" viewBox="0 0 329 154" fill="none" xmlns="http://www.w3.org/2000/svg">
<path fill-rule="evenodd" clip-rule="evenodd" d="M156.567 51.8627C149.699 48.6504 140.866 46.391 130.056 46.7909L156.567 51.8627ZM164.364 66.7752L130.056 46.7909C130.448 47.3188 130.699 48.2535 131.015 49.4298C131.99 53.0601 133.582 58.9914 141.847 62.3678C149.24 65.388 157.743 66.1671 163.089 66.657C163.537 66.698 163.963 66.737 164.364 66.7752ZM209.938 62.0731C197.117 62.0731 184.771 63.2557 173.21 65.1564C170.782 61.4976 165.242 55.9201 156.567 51.8627L209.938 62.0731ZM19.6088 93.2912C21.2483 92.3593 23.8624 90.2154 23.6447 87.6023C25.0203 86.9145 27.3588 84.7135 25.7081 81.4121C26.9854 80.5278 29.0684 78.0518 27.1819 75.222C28.361 74.6324 30.3654 72.687 28.9505 69.6213C29.9331 69.3266 31.6035 67.9117 30.4244 64.6103C40.923 61.2079 67.8097 62.1142 92.1306 92.5055C94.9018 90.9508 112.091 81.5818 137.58 73.6447L137.58 73.6446C138.969 73.2119 140.384 72.7836 141.822 72.3609C148.814 70.3055 156.366 68.3862 164.364 66.7752L209.938 62.0731L209.939 62.0731C218.014 62.0731 225.9 62.1498 233.52 62.3327C236.269 62.3987 238.983 62.4784 241.659 62.5735C241.221 60.4474 238.967 55.3221 228.209 52.4138C218.047 49.6669 216.353 38.4505 216.777 33.1857C265.001 23.2367 274.596 55.342 276.804 65.1041C290.093 66.7161 301.421 69.101 310.029 72.5517C310.455 71.2593 311.673 70.3266 313.108 70.3266C314.899 70.3266 316.351 71.7783 316.351 73.5691C316.351 74.2 316.17 74.7889 315.859 75.287C316.408 75.5902 316.94 75.9001 317.455 76.2166C324.317 80.4319 328.141 85.8349 328.141 92.7291C328.141 99.6994 324.232 105.145 317.227 109.381C316.911 109.572 316.589 109.76 316.26 109.947C316.319 110.191 316.351 110.447 316.351 110.71C316.351 112.501 314.899 113.952 313.108 113.952C312.066 113.952 311.138 113.461 310.545 112.697C309.515 113.12 308.445 113.528 307.336 113.92C299.062 116.849 288.627 118.93 276.591 120.38C274.003 131.07 263.594 161.047 216.777 151.388C216.353 146.123 218.047 134.907 228.209 132.16C237.667 129.603 240.552 125.333 241.409 122.894C231.389 123.245 220.836 123.385 209.939 123.385L209.938 123.385C209.642 123.385 209.345 123.384 209.049 123.383C196.545 123.33 184.504 122.158 173.21 120.302C168.86 126.857 154.519 139.572 130.056 138.667C130.448 138.139 130.699 137.205 131.015 136.028C131.99 132.398 133.582 126.467 141.847 123.09C149.24 120.07 157.743 119.291 163.089 118.801L163.093 118.801C163.539 118.76 163.964 118.721 164.364 118.683C158.786 117.559 153.424 116.286 148.319 114.921V114.921C136.548 111.774 126.135 108.14 117.554 104.736L117.555 104.736C104.471 99.5447 95.6471 94.8877 92.7635 93.3037L92.9155 93.4977C80.9792 86.7468 49.6756 77.3072 19.6088 93.2912ZM19.2231 93.4977C19.3435 93.4375 19.4728 93.3685 19.6088 93.2912C19.4802 93.3596 19.3517 93.4284 19.2231 93.4977Z" fill="#151515" fill-opacity="0.1"/>
<path d="M110.975 15.8476C136.411 14.9064 150.903 28.6905 154.6 34.965L149.055 36.4355C147.083 35.4552 133.709 35.895 122.765 31.4245C111.822 26.9539 112.577 18.0044 110.975 15.8476Z" fill="url(#paint0_linear_147_227)"/>
<path d="M110.975 107.724C136.411 108.665 150.903 94.8808 154.6 88.6064L149.055 87.1358C147.083 88.1162 133.709 87.6764 122.765 92.1469C111.822 96.6174 112.577 105.567 110.975 107.724Z" fill="url(#paint1_linear_147_227)"/>
<path d="M197.695 2.24233C246.274 -7.77983 255.653 24.8726 257.77 34.3722C249.019 34.3722 222.676 33.2819 222.676 32.4578C222.676 31.4277 221.829 24.9039 209.127 21.4704C198.965 18.7235 197.272 7.50715 197.695 2.24233Z" fill="url(#paint2_linear_147_227)"/>
<path d="M197.695 120.445C246.274 130.467 255.653 97.8146 257.77 88.315C249.019 88.315 222.676 89.4053 222.676 90.2294C222.676 91.2595 221.829 97.7833 209.127 101.217C198.965 103.964 197.272 115.18 197.695 120.445Z" fill="url(#paint3_linear_147_227)"/>
<path d="M309.06 61.7857C309.06 87.4306 256.139 92.4417 190.857 92.4417C125.576 92.4417 72.6548 61.7857 72.6548 61.7857C72.6548 61.7857 125.576 31.1297 190.857 31.1297C256.139 31.1297 309.06 36.1408 309.06 61.7857Z" fill="#FF550E"/>
<path fill-rule="evenodd" clip-rule="evenodd" d="M214.439 31.3893C206.818 31.2064 198.932 31.1297 190.857 31.1297C163.598 31.1297 138.494 36.4748 118.498 42.7012C123.756 46.1404 129.318 48.8158 136.62 48.8158C144.751 48.8158 148.154 45.2484 151.098 42.1629C153.702 39.4323 155.947 37.079 160.791 37.9094C165.198 38.665 166.27 41.734 167.339 44.7951C168.773 48.8989 170.201 52.9883 179.656 51.4688C185.158 50.5844 190.857 50.5844 196.01 50.5844C206.316 50.5844 214.439 50.5844 214.439 43.51V31.3893ZM98.4731 73.7923C107.054 77.1965 117.466 80.8303 129.238 83.9775C129.279 82.5416 128.721 80.7804 126.892 78.2928C119.523 68.2706 111.564 61.7857 105.964 65.3229C104.074 66.5162 102.487 68.6152 100.839 70.7938L100.839 70.7938C100.075 71.8036 99.2988 72.8306 98.4731 73.7923ZM189.968 92.4398C190.264 92.4411 190.56 92.4417 190.857 92.4417C214.762 92.4417 237.01 91.7697 255.609 89.6587C254.812 88.9841 254.024 88.3033 253.241 87.6272C246.298 81.6314 239.777 76.0004 231.83 78.2928C222.083 81.1044 216.389 82.4857 210.654 83.8768L210.654 83.8769L210.654 83.8769C207.37 84.6734 204.073 85.4731 199.995 86.5463C192.576 88.4986 192.14 89.1579 190.122 92.2066C190.072 92.2828 190.02 92.3605 189.968 92.4398ZM288.254 82.977C301.377 78.3326 309.06 71.5569 309.06 61.7857C309.06 41.2987 275.285 33.9801 228.417 31.8649C231.082 34.6702 232.693 37.4716 231.83 39.678C231.061 41.6435 229.028 44.3028 226.91 47.074L226.91 47.0743C221.722 53.8616 216.02 61.32 227.114 60.9014C235.174 60.5972 240.488 56.6053 244.999 53.2166C249.231 50.0372 252.757 47.3889 257.18 48.8158C259.979 49.7188 262.695 51.2855 265.328 52.8043C271.291 56.2439 276.829 59.4381 281.941 54.1217C289.31 46.4577 297.269 62.9648 291.079 72.3974C289.124 75.3762 288.609 79.1781 288.254 82.977Z" fill="white"/>
<path d="M0.527208 62.3478C30.594 46.3638 61.8977 55.8034 73.8339 62.5543C49.3091 31.1908 21.9545 30.2279 11.3428 33.6669C12.5219 36.9683 10.8516 38.3832 9.86899 38.6779C11.2839 41.7435 9.27945 43.689 8.10037 44.2786C9.9869 47.1083 7.90386 49.5844 6.62653 50.4687C8.27723 53.7701 5.93873 55.9711 4.56314 56.6589C4.7809 59.272 2.16674 61.4159 0.527208 62.3478C0.398649 62.4162 0.270113 62.485 0.141602 62.5543C0.261988 62.4941 0.391247 62.4251 0.527208 62.3478Z" fill="url(#paint4_linear_147_227)"/>
<circle cx="294.027" cy="42.6257" r="3.24246" fill="black"/>
<circle cx="294.027" cy="79.7666" r="3.24246" fill="black"/>
<defs>
<linearGradient id="paint0_linear_147_227" x1="152.382" y1="35.5532" x2="101.727" y2="-1.35372" gradientUnits="userSpaceOnUse">
<stop stop-color="white"/>
<stop offset="1" stop-color="white" stop-opacity="0"/>
</linearGradient>
<linearGradient id="paint1_linear_147_227" x1="152.382" y1="88.0182" x2="101.727" y2="124.925" gradientUnits="userSpaceOnUse">
<stop stop-color="white"/>
<stop offset="1" stop-color="white" stop-opacity="0"/>
</linearGradient>
<linearGradient id="paint2_linear_147_227" x1="237.136" y1="32.8983" x2="183.488" y2="-9.25367" gradientUnits="userSpaceOnUse">
<stop stop-color="white"/>
<stop offset="1" stop-color="white" stop-opacity="0"/>
</linearGradient>
<linearGradient id="paint3_linear_147_227" x1="237.136" y1="89.7889" x2="182.014" y2="132.53" gradientUnits="userSpaceOnUse">
<stop stop-color="white"/>
<stop offset="1" stop-color="white" stop-opacity="0"/>
</linearGradient>
<linearGradient id="paint4_linear_147_227" x1="73.8339" y1="62.3752" x2="-30.5144" y2="38.7937" gradientUnits="userSpaceOnUse">
<stop stop-color="white"/>
<stop offset="1" stop-color="white" stop-opacity="0"/>
</linearGradient>
</defs>
</svg>
