<svg width="328" height="153" viewBox="0 0 328 153" fill="none" xmlns="http://www.w3.org/2000/svg">
<path fill-rule="evenodd" clip-rule="evenodd" d="M156.426 101.415C149.558 104.628 140.724 106.887 129.915 106.487L156.426 101.415ZM164.222 86.5028L129.915 106.487C130.307 105.959 130.558 105.024 130.874 103.848C131.848 100.218 133.44 94.2865 141.705 90.9101C149.099 87.8899 157.601 87.1108 162.948 86.6209C163.396 86.5799 163.821 86.5409 164.222 86.5028ZM209.797 91.2049C196.975 91.2048 184.63 90.0222 173.069 88.1215C170.641 91.7804 165.101 97.3579 156.426 101.415L209.797 91.2049ZM19.4671 59.9867C21.1067 60.9187 23.7208 63.0626 23.5031 65.6757C24.8787 66.3635 27.2172 68.5644 25.5665 71.8658C26.8438 72.7502 28.9268 75.2262 27.0403 78.056C28.2194 78.6455 30.2238 80.591 28.8089 83.6566C29.7915 83.9514 31.4618 85.3663 30.2828 88.6677C40.7814 92.07 67.6681 91.1638 91.989 60.7725C94.7602 62.3271 111.949 71.6962 137.438 79.6333L137.438 79.6333C138.828 80.066 140.242 80.4944 141.68 80.9171C148.672 82.9725 156.224 84.8918 164.222 86.5028L209.797 91.2049L209.797 91.2049C217.872 91.2049 225.758 91.1282 233.378 90.9453C236.127 90.8793 238.841 90.7995 241.517 90.7045C241.079 92.8305 238.826 97.9559 228.067 100.864C217.905 103.611 216.212 114.827 216.635 120.092C264.86 130.041 274.454 97.9359 276.662 88.1739C289.951 86.5618 301.28 84.1769 309.887 80.7263C310.314 82.0186 311.531 82.9513 312.967 82.9513C314.757 82.9513 316.209 81.4996 316.209 79.7089C316.209 79.0779 316.029 78.4891 315.717 77.991C316.266 77.6877 316.799 77.3779 317.314 77.0613C324.175 72.8461 328 67.4431 328 60.5489C328 53.5786 324.09 48.1326 317.086 43.8973C316.77 43.7062 316.447 43.5176 316.119 43.3314C316.178 43.0866 316.209 42.8309 316.209 42.5679C316.209 40.7772 314.757 39.3255 312.967 39.3255C311.924 39.3255 310.997 39.8172 310.404 40.5814C309.374 40.1578 308.303 39.7501 307.194 39.3575C298.92 36.4293 288.485 34.3484 276.449 32.8981C273.861 22.2084 263.453 -7.76913 216.635 1.88968C216.212 7.15449 217.905 18.3708 228.067 21.1177C237.526 23.6745 240.41 27.9449 241.267 30.3844C231.247 30.0325 220.694 29.8929 209.797 29.8929L209.797 29.8928C209.5 29.8928 209.203 29.8935 208.907 29.8947C196.404 29.948 184.362 31.1195 173.069 32.9762C168.718 26.4205 154.378 13.7056 129.915 14.6108C130.307 15.1386 130.558 16.0733 130.874 17.2497C131.848 20.8799 133.44 26.8112 141.705 30.1877C149.099 33.2078 157.601 33.9869 162.948 34.4768L162.951 34.4771C163.398 34.518 163.822 34.5569 164.222 34.595C158.644 35.7185 153.283 36.9921 148.177 38.3572L148.177 38.3571C136.406 41.5043 125.993 45.1381 117.413 48.5423L117.413 48.5424C104.329 53.7333 95.5055 58.3902 92.6219 59.9742L92.7739 59.7803C80.8376 66.5311 49.534 75.9708 19.4671 59.9867ZM19.0815 59.7803C19.2019 59.8405 19.3312 59.9094 19.4671 59.9867C19.3386 59.9184 19.2101 59.8496 19.0815 59.7803Z" fill="#151515" fill-opacity="0.1"/>
<path d="M110.833 137.43C136.269 138.371 150.762 124.587 154.459 118.313L148.913 116.842C146.941 117.823 133.567 117.383 122.624 121.853C111.68 126.324 112.435 135.273 110.833 137.43Z" fill="url(#paint0_linear_180_1001)"/>
<path d="M110.833 45.554C136.269 44.6129 150.762 58.397 154.459 64.6715L148.913 66.142C146.941 65.1616 133.567 65.6015 122.624 61.1309C111.68 56.6604 112.435 47.7109 110.833 45.554Z" fill="url(#paint1_linear_180_1001)"/>
<path d="M197.553 151.036C246.132 161.058 255.511 128.405 257.628 118.906C248.878 118.906 222.534 119.996 222.534 120.82C222.534 121.85 221.687 128.374 208.985 131.808C198.824 134.554 197.13 145.771 197.553 151.036Z" fill="url(#paint2_linear_180_1001)"/>
<path d="M197.553 32.8331C246.132 22.8109 255.511 55.4633 257.628 64.9629C248.878 64.9629 222.534 63.8726 222.534 63.0485C222.534 62.0185 221.687 55.4947 208.985 52.0611C198.824 49.3142 197.13 38.0979 197.553 32.8331Z" fill="url(#paint3_linear_180_1001)"/>
<path d="M308.918 91.4922C308.918 65.8472 255.997 60.8362 190.716 60.8362C125.434 60.8362 72.5132 91.4922 72.5132 91.4922C72.5132 91.4922 125.434 122.148 190.716 122.148C255.997 122.148 308.918 117.137 308.918 91.4922Z" fill="#FF550E"/>
<path fill-rule="evenodd" clip-rule="evenodd" d="M214.297 121.889C206.677 122.072 198.791 122.148 190.715 122.148C163.456 122.148 138.353 116.803 118.357 110.577C123.614 107.137 129.177 104.462 136.478 104.462C144.61 104.462 148.013 108.029 150.956 111.115C153.561 113.846 155.806 116.199 160.649 115.369C165.057 114.613 166.129 111.544 167.198 108.483C168.631 104.379 170.06 100.29 179.514 101.809C185.017 102.693 190.716 102.693 195.869 102.693C206.175 102.693 214.297 102.693 214.297 109.768L214.297 121.889ZM98.3315 79.4855C106.912 76.0814 117.325 72.4476 129.096 69.3003C129.138 70.7363 128.58 72.4975 126.751 74.9851C119.381 85.0073 111.423 91.4922 105.822 87.955C103.933 86.7617 102.345 84.6627 100.698 82.4841L100.698 82.484C99.9338 81.4742 99.1572 80.4473 98.3315 79.4855ZM189.826 60.8381C190.122 60.8368 190.419 60.8362 190.715 60.8362C214.621 60.8362 236.868 61.5081 255.467 63.6191C254.671 64.2937 253.882 64.9745 253.099 65.6507C246.156 71.6465 239.635 77.2775 231.688 74.9851C221.942 72.1735 216.247 70.7922 210.512 69.4011L210.512 69.401L210.512 69.401C207.228 68.6045 203.932 67.8048 199.853 66.7316C192.435 64.7793 191.998 64.12 189.98 61.0713C189.93 60.9951 189.878 60.9173 189.826 60.8381ZM288.113 70.3009C301.235 74.9452 308.918 81.7209 308.918 91.4922C308.918 111.979 275.144 119.298 228.275 121.413C230.94 118.608 232.552 115.806 231.688 113.6C230.919 111.634 228.887 108.975 226.768 106.204L226.768 106.204C221.58 99.4163 215.879 91.9579 226.972 92.3765C235.032 92.6807 240.346 96.6726 244.857 100.061C249.09 103.241 252.615 105.889 257.039 104.462C259.838 103.559 262.554 101.992 265.187 100.474C271.15 97.0339 276.687 93.8398 281.799 99.1562C289.168 106.82 297.127 90.3131 290.937 80.8805C288.982 77.9017 288.468 74.0997 288.113 70.3009Z" fill="white"/>
<path d="M0.385606 90.9301C30.4524 106.914 61.7561 97.4745 73.6923 90.7236C49.1675 122.087 21.8129 123.05 11.2012 119.611C12.3803 116.31 10.71 114.895 9.72739 114.6C11.1423 111.534 9.13785 109.589 7.95877 108.999C9.8453 106.17 7.76226 103.693 6.48493 102.809C8.13563 99.5078 5.79713 97.3068 4.42154 96.619C4.6393 94.0059 2.02514 91.862 0.385606 90.9301C0.257048 90.8617 0.128512 90.7929 0 90.7236C0.120386 90.7838 0.249645 90.8528 0.385606 90.9301Z" fill="url(#paint4_linear_180_1001)"/>
<circle r="3.24246" transform="matrix(1 -8.74228e-08 -8.74228e-08 -1 293.885 110.652)" fill="black"/>
<circle r="3.24246" transform="matrix(1 -8.74228e-08 -8.74228e-08 -1 293.885 73.5113)" fill="black"/>
<defs>
<linearGradient id="paint0_linear_180_1001" x1="152.241" y1="117.725" x2="101.586" y2="154.632" gradientUnits="userSpaceOnUse">
<stop stop-color="white"/>
<stop offset="1" stop-color="white" stop-opacity="0"/>
</linearGradient>
<linearGradient id="paint1_linear_180_1001" x1="152.241" y1="65.2597" x2="101.586" y2="28.3528" gradientUnits="userSpaceOnUse">
<stop stop-color="white"/>
<stop offset="1" stop-color="white" stop-opacity="0"/>
</linearGradient>
<linearGradient id="paint2_linear_180_1001" x1="236.994" y1="120.38" x2="183.346" y2="162.532" gradientUnits="userSpaceOnUse">
<stop stop-color="white"/>
<stop offset="1" stop-color="white" stop-opacity="0"/>
</linearGradient>
<linearGradient id="paint3_linear_180_1001" x1="236.994" y1="63.4891" x2="181.872" y2="20.7475" gradientUnits="userSpaceOnUse">
<stop stop-color="white"/>
<stop offset="1" stop-color="white" stop-opacity="0"/>
</linearGradient>
<linearGradient id="paint4_linear_180_1001" x1="73.6923" y1="90.9026" x2="-30.656" y2="114.484" gradientUnits="userSpaceOnUse">
<stop stop-color="white"/>
<stop offset="1" stop-color="white" stop-opacity="0"/>
</linearGradient>
</defs>
</svg>
