<svg width="328" height="153" viewBox="0 0 328 153" fill="none" xmlns="http://www.w3.org/2000/svg">
<path fill-rule="evenodd" clip-rule="evenodd" d="M171.574 51.5101C178.442 48.2978 187.276 46.0383 198.085 46.4383L171.574 51.5101ZM163.778 66.4225L198.085 46.4383C197.693 46.9662 197.442 47.9009 197.126 49.0772C196.152 52.7074 194.56 58.6388 186.295 62.0152C178.901 65.0354 170.399 65.8145 165.052 66.3044C164.604 66.3454 164.179 66.3844 163.778 66.4225ZM118.203 61.7205C131.025 61.7205 143.37 62.9031 154.931 64.8038C157.359 61.1449 162.899 55.5675 171.574 51.5101L118.203 61.7205ZM308.533 92.9386C306.893 92.0066 304.279 89.8627 304.497 87.2496C303.121 86.5618 300.783 84.3609 302.434 81.0595C301.156 80.1752 299.073 77.6991 300.96 74.8693C299.781 74.2798 297.776 72.3343 299.191 69.2687C298.209 68.9739 296.538 67.5591 297.717 64.2576C287.219 60.8553 260.332 61.7616 236.011 92.1529C233.24 90.5982 216.051 81.2291 190.562 73.2921L190.562 73.292C189.172 72.8593 187.758 72.4309 186.32 72.0082C179.328 69.9529 171.776 68.0335 163.778 66.4225L118.203 61.7205L118.203 61.7204C110.128 61.7204 102.242 61.7971 94.6217 61.9801C91.873 62.046 89.1589 62.1258 86.483 62.2208C86.9207 60.0948 89.1741 54.9694 99.933 52.0611C110.095 49.3143 111.788 38.0979 111.365 32.8331C63.1404 22.884 53.5461 54.9894 51.3377 64.7514C38.0486 66.3635 26.7202 68.7484 18.1131 72.1991C17.6863 70.9067 16.4688 69.974 15.0334 69.974C13.2427 69.974 11.791 71.4257 11.791 73.2164C11.791 73.8474 11.9712 74.4362 12.283 74.9343C11.7338 75.2376 11.2014 75.5474 10.6862 75.864C3.82489 80.0793 0.000213623 85.4822 0.000213623 92.3764C0.000213623 99.3467 3.90976 104.793 10.9144 109.028C11.2304 109.219 11.5528 109.408 11.8814 109.594C11.8223 109.839 11.791 110.094 11.791 110.357C11.791 112.148 13.2427 113.6 15.0334 113.6C16.0757 113.6 17.0031 113.108 17.5963 112.344C18.6264 112.767 19.6968 113.175 20.806 113.568C29.0795 116.496 39.515 118.577 51.5506 120.027C54.1388 130.717 64.5475 160.694 111.365 151.036C111.788 145.771 110.095 134.554 99.933 131.808C90.4743 129.251 87.5895 124.98 86.733 122.541C96.7527 122.893 107.306 123.032 118.203 123.032L118.203 123.032C118.5 123.032 118.797 123.032 119.093 123.031C131.596 122.977 143.638 121.806 154.931 119.949C159.282 126.505 173.622 139.22 198.085 138.315C197.693 137.787 197.442 136.852 197.126 135.676C196.152 132.045 194.56 126.114 186.295 122.738C178.901 119.717 170.399 118.938 165.052 118.448L165.049 118.448C164.602 118.407 164.178 118.368 163.778 118.33C169.356 117.207 174.717 115.933 179.823 114.568V114.568C191.594 111.421 202.007 107.787 210.587 104.383L210.587 104.383C223.671 99.1921 232.494 94.5351 235.378 92.9511L235.226 93.145C247.162 86.3942 278.466 76.9545 308.533 92.9386ZM308.918 93.145C308.798 93.0848 308.669 93.0159 308.533 92.9386C308.661 93.0069 308.79 93.0758 308.918 93.145Z" fill="#151515" fill-opacity="0.1"/>
<path d="M217.167 15.4949C191.731 14.5538 177.238 28.3379 173.541 34.6123L179.087 36.0829C181.059 35.1025 194.433 35.5424 205.376 31.0718C216.32 26.6013 215.565 17.6518 217.167 15.4949Z" fill="url(#paint0_linear_179_529)"/>
<path d="M217.167 107.371C191.731 108.312 177.238 94.5282 173.541 88.2538L179.087 86.7832C181.059 87.7636 194.433 87.3237 205.376 91.7943C216.32 96.2648 215.565 105.214 217.167 107.371Z" fill="url(#paint1_linear_179_529)"/>
<path d="M130.447 1.8897C81.868 -8.13246 72.489 24.52 70.3719 34.0196C79.1222 34.0196 105.466 32.9292 105.466 32.1052C105.466 31.0751 106.313 24.5513 119.015 21.1177C129.176 18.3709 130.87 7.15452 130.447 1.8897Z" fill="url(#paint2_linear_179_529)"/>
<path d="M130.447 120.092C81.868 130.114 72.489 97.4619 70.3719 87.9624C79.1222 87.9624 105.466 89.0527 105.466 89.8768C105.466 90.9068 106.313 97.4306 119.015 100.864C129.176 103.611 130.87 114.827 130.447 120.092Z" fill="url(#paint3_linear_179_529)"/>
<path d="M19.0818 61.4331C19.0818 87.078 72.0029 92.0891 137.284 92.0891C202.566 92.0891 255.487 61.4331 255.487 61.4331C255.487 61.4331 202.566 30.777 137.284 30.777C72.0029 30.777 19.0818 35.7881 19.0818 61.4331Z" fill="#3D3D3D"/>
<path fill-rule="evenodd" clip-rule="evenodd" d="M113.703 31.0366C121.323 30.8537 129.209 30.777 137.285 30.777C164.544 30.777 189.647 36.1221 209.643 42.3485C204.386 45.7877 198.823 48.4632 191.522 48.4632C183.39 48.4632 179.987 44.8958 177.044 41.8102C174.439 39.0797 172.194 36.7264 167.351 37.5567C162.943 38.3123 161.871 41.3814 160.802 44.4424C159.369 48.5463 157.94 52.6356 148.486 51.1161C142.983 50.2318 137.284 50.2318 132.131 50.2318C121.825 50.2318 113.703 50.2318 113.703 43.1573V31.0366ZM229.668 73.4397C221.088 76.8439 210.675 80.4777 198.904 83.6249C198.862 82.1889 199.42 80.4277 201.249 77.9401C208.619 67.918 216.577 61.433 222.178 64.9703C224.067 66.1635 225.655 68.2625 227.302 70.4412L227.302 70.4412C228.066 71.451 228.843 72.4779 229.668 73.4397ZM138.174 92.0872C137.878 92.0884 137.581 92.0891 137.285 92.0891C113.379 92.0891 91.1317 91.4171 72.533 89.3061C73.3294 88.6315 74.1177 87.9507 74.9007 87.2745C81.8438 81.2788 88.3646 75.6477 96.3116 77.9401C106.058 80.7517 111.753 82.1331 117.488 83.5241L117.488 83.5242L117.488 83.5243C120.772 84.3207 124.068 85.1204 128.147 86.1937C135.565 88.146 136.002 88.8052 138.02 91.8539C138.07 91.9302 138.121 92.0079 138.174 92.0872ZM39.8872 82.6243C26.765 77.98 19.0821 71.2043 19.0821 61.4331C19.0821 40.946 52.8561 33.6275 99.7249 31.5123C97.0596 34.3175 95.4482 37.119 96.3116 39.3253C97.0807 41.2909 99.1134 43.9502 101.232 46.7214L101.232 46.7217C106.42 53.5089 112.121 60.9674 101.028 60.5487C92.9676 60.2446 87.6535 56.2526 83.1425 52.864C78.9102 49.6846 75.3847 47.0363 70.9614 48.4632C68.1623 49.3661 65.4462 50.9328 62.8131 52.4517C56.8502 55.8913 51.3127 59.0854 46.2008 53.769C38.8315 46.105 30.8728 62.6121 37.0629 72.0447C39.0178 75.0236 39.5321 78.8255 39.8872 82.6243Z" fill="white"/>
<path d="M327.614 61.9952C297.548 46.0111 266.244 55.4508 254.308 62.2016C278.832 30.8382 306.187 29.8753 316.799 33.3142C315.62 36.6157 317.29 38.0306 318.273 38.3253C316.858 41.3909 318.862 43.3364 320.041 43.9259C318.155 46.7557 320.238 49.2318 321.515 50.1161C319.864 53.4175 322.203 55.6185 323.578 56.3063C323.361 58.9193 325.975 61.0632 327.614 61.9952C327.743 62.0636 327.871 62.1324 328 62.2016C327.88 62.1414 327.75 62.0725 327.614 61.9952Z" fill="url(#paint4_linear_179_529)"/>
<circle r="3.24246" transform="matrix(-1 0 0 1 34.115 42.273)" fill="black"/>
<circle r="3.24246" transform="matrix(-1 0 0 1 34.115 79.414)" fill="black"/>
<defs>
<linearGradient id="paint0_linear_179_529" x1="175.759" y1="35.2006" x2="226.414" y2="-1.70635" gradientUnits="userSpaceOnUse">
<stop stop-color="white"/>
<stop offset="1" stop-color="white" stop-opacity="0"/>
</linearGradient>
<linearGradient id="paint1_linear_179_529" x1="175.759" y1="87.6655" x2="226.414" y2="124.572" gradientUnits="userSpaceOnUse">
<stop stop-color="white"/>
<stop offset="1" stop-color="white" stop-opacity="0"/>
</linearGradient>
<linearGradient id="paint2_linear_179_529" x1="91.0058" y1="32.5457" x2="144.654" y2="-9.60631" gradientUnits="userSpaceOnUse">
<stop stop-color="white"/>
<stop offset="1" stop-color="white" stop-opacity="0"/>
</linearGradient>
<linearGradient id="paint3_linear_179_529" x1="91.0058" y1="89.4362" x2="146.128" y2="132.178" gradientUnits="userSpaceOnUse">
<stop stop-color="white"/>
<stop offset="1" stop-color="white" stop-opacity="0"/>
</linearGradient>
<linearGradient id="paint4_linear_179_529" x1="254.308" y1="62.0226" x2="358.656" y2="38.4411" gradientUnits="userSpaceOnUse">
<stop stop-color="white"/>
<stop offset="1" stop-color="white" stop-opacity="0"/>
</linearGradient>
</defs>
</svg>
