<svg width="327" height="160" viewBox="0 0 327 160" fill="none" xmlns="http://www.w3.org/2000/svg">
<path fill-rule="evenodd" clip-rule="evenodd" d="M138.253 21.2438C131.385 18.0315 122.552 15.7721 111.742 16.172L138.253 21.2438ZM146.05 36.1562L111.742 16.172C112.134 16.6999 112.385 17.6346 112.701 18.8109C113.676 22.4412 115.268 28.3725 123.533 31.7489C130.926 34.7691 139.429 35.5482 144.775 36.0381C145.223 36.0791 145.649 36.1181 146.05 36.1562ZM191.625 31.4542C178.803 31.4542 166.457 32.6368 154.896 34.5375C152.468 30.8787 146.928 25.3012 138.253 21.2438L191.625 31.4542ZM1.29479 62.6723C2.93432 61.7404 5.54848 59.5965 5.33072 56.9834C6.70631 56.2956 9.04481 54.0946 7.3941 50.7932C8.67144 49.9089 10.7545 47.4328 8.86795 44.6031C10.047 44.0135 12.0515 42.068 10.6366 39.0024C11.6191 38.7077 13.2895 37.2928 12.1104 33.9914C22.609 30.589 49.4957 31.4953 73.8167 61.8866C76.5878 60.3319 93.7766 50.9629 119.266 43.0258L119.266 43.0257C120.655 42.593 122.07 42.1647 123.508 41.742C130.5 39.6866 138.052 37.7673 146.05 36.1562L191.625 31.4542L191.625 31.4542C199.7 31.4542 207.586 31.5309 215.206 31.7138C217.955 31.7798 220.669 31.8595 223.345 31.9546C222.907 29.8285 220.654 24.7031 209.895 21.7948C199.733 19.048 198.039 7.83164 198.463 2.56682C246.687 -7.38225 256.282 24.7231 258.49 34.4852C271.779 36.0972 283.107 38.4821 291.715 41.9328C292.141 40.6404 293.359 39.7077 294.794 39.7077C296.585 39.7077 298.037 41.1594 298.037 42.9502C298.037 43.5811 297.856 44.17 297.545 44.6681C298.094 44.9713 298.626 45.2812 299.141 45.5977C306.003 49.813 309.827 55.216 309.827 62.1102C309.827 69.0805 305.918 74.5264 298.913 78.7617C298.597 78.9528 298.275 79.1414 297.946 79.3276C298.005 79.5725 298.037 79.8281 298.037 80.0911C298.037 81.8819 296.585 83.3336 294.794 83.3336C293.752 83.3336 292.825 82.8418 292.231 82.0776C291.201 82.5012 290.131 82.909 289.022 83.3015C280.748 86.2297 270.313 88.3107 258.277 89.7609C255.689 100.451 245.28 130.428 198.463 120.769C198.039 115.505 199.733 104.288 209.895 101.541C219.353 98.9845 222.238 94.7141 223.095 92.2746C213.075 92.6266 202.522 92.7662 191.625 92.7662L191.625 92.7662C191.328 92.7662 191.031 92.7656 190.735 92.7643C178.231 92.711 166.19 91.5395 154.896 89.6828C150.546 96.2385 136.205 108.953 111.742 108.048C112.134 107.52 112.385 106.586 112.701 105.409C113.676 101.779 115.268 95.8478 123.533 92.4714C130.926 89.4512 139.429 88.6721 144.775 88.1822L144.779 88.1819C145.225 88.141 145.65 88.1021 146.05 88.0641C140.472 86.9405 135.11 85.6669 130.005 84.3018L130.005 84.302C118.234 81.1547 107.821 77.5209 99.2404 74.1168L99.2405 74.1166C86.1568 68.9258 77.3332 64.2688 74.4495 62.6848L74.6015 62.8788C62.6653 56.1279 31.3616 46.6883 1.29479 62.6723ZM0.90918 62.8788C1.02957 62.8186 1.15882 62.7496 1.29479 62.6723C1.16623 62.7407 1.03769 62.8095 0.90918 62.8788Z" fill="#151515" fill-opacity="0.1"/>
<path d="M128 53.3028C153.436 52.3617 167.929 66.1458 171.626 72.4203L166.08 73.8908C164.108 72.9104 150.734 73.3503 139.791 68.8797C128.847 64.4092 129.602 55.4597 128 53.3028Z" fill="url(#paint0_linear_147_261)"/>
<path d="M128 145.179C153.436 146.12 167.929 132.336 171.626 126.062L166.08 124.591C164.108 125.572 150.734 125.132 139.791 129.602C128.847 134.073 129.602 143.022 128 145.179Z" fill="url(#paint1_linear_147_261)"/>
<path d="M214.72 39.6976C263.299 29.6755 272.678 62.3279 274.795 71.8275C266.045 71.8275 239.701 70.7372 239.701 69.9131C239.701 68.883 238.854 62.3592 226.152 58.9256C215.991 56.1788 214.297 44.9624 214.72 39.6976Z" fill="url(#paint2_linear_147_261)"/>
<path d="M214.72 157.9C263.299 167.922 272.678 135.27 274.795 125.77C266.045 125.77 239.701 126.861 239.701 127.685C239.701 128.715 238.854 135.239 226.152 138.672C215.991 141.419 214.297 152.635 214.72 157.9Z" fill="url(#paint3_linear_147_261)"/>
<path d="M326.085 99.241C326.085 124.886 273.164 129.897 207.883 129.897C142.601 129.897 89.6802 99.241 89.6802 99.241C89.6802 99.241 142.601 68.585 207.883 68.585C273.164 68.585 326.085 73.596 326.085 99.241Z" fill="#FF550E"/>
<path fill-rule="evenodd" clip-rule="evenodd" d="M231.464 68.8446C223.844 68.6616 215.958 68.585 207.882 68.585C180.623 68.585 155.52 73.9301 135.524 80.1564C140.781 83.5957 146.344 86.2711 153.645 86.2711C161.777 86.2711 165.18 82.7037 168.123 79.6182C170.728 76.8876 172.972 74.5343 177.816 75.3646C182.224 76.1202 183.296 79.1893 184.365 82.2503C185.798 86.3542 187.227 90.4436 196.681 88.924C202.184 88.0397 207.883 88.0397 213.036 88.0397C223.342 88.0397 231.464 88.0397 231.464 80.9653V68.8446ZM115.499 111.248C124.079 114.652 134.492 118.286 146.263 121.433C146.305 119.997 145.747 118.236 143.918 115.748C136.548 105.726 128.59 99.241 122.989 102.778C121.1 103.971 119.512 106.07 117.865 108.249L117.865 108.249C117.101 109.259 116.324 110.286 115.499 111.248ZM206.993 129.895C207.289 129.896 207.586 129.897 207.882 129.897C231.788 129.897 254.035 129.225 272.634 127.114C271.838 126.439 271.049 125.759 270.266 125.082C263.323 119.087 256.802 113.456 248.855 115.748C239.109 118.56 233.414 119.941 227.679 121.332L227.679 121.332L227.679 121.332C224.395 122.129 221.099 122.928 217.02 124.002C209.602 125.954 209.165 126.613 207.147 129.662C207.097 129.738 207.045 129.816 206.993 129.895ZM305.28 120.432C318.402 115.788 326.085 109.012 326.085 99.241C326.085 78.7539 292.311 71.4354 245.442 69.3202C248.107 72.1254 249.719 74.9269 248.855 77.1333C248.086 79.0988 246.054 81.7581 243.935 84.5293L243.935 84.5296C238.747 91.3168 233.046 98.7753 244.139 98.3567C252.199 98.0525 257.513 94.0606 262.024 90.6719C266.257 87.4925 269.782 84.8442 274.206 86.2711C277.005 87.174 279.721 88.7407 282.354 90.2596C288.317 93.6992 293.854 96.8934 298.966 91.577C306.335 83.913 314.294 100.42 308.104 109.853C306.149 112.831 305.635 116.633 305.28 120.432Z" fill="white"/>
<path d="M17.5526 99.8032C47.6194 83.8191 78.9231 93.2588 90.8593 100.01C66.3345 68.6461 38.9799 67.6832 28.3682 71.1222C29.5473 74.4236 27.8769 75.8385 26.8944 76.1333C28.3093 79.1989 26.3048 81.1443 25.1258 81.7339C27.0123 84.5637 24.9293 87.0397 23.6519 87.924C25.3026 91.2255 22.9641 93.4264 21.5885 94.1142C21.8063 96.7273 19.1921 98.8712 17.5526 99.8032C17.424 99.8715 17.2955 99.9403 17.167 100.01C17.2874 99.9494 17.4166 99.8804 17.5526 99.8032Z" fill="url(#paint4_linear_147_261)"/>
<circle cx="311.052" cy="80.081" r="3.24246" fill="black"/>
<circle cx="311.052" cy="117.222" r="3.24246" fill="black"/>
<defs>
<linearGradient id="paint0_linear_147_261" x1="169.408" y1="73.0085" x2="118.753" y2="36.1016" gradientUnits="userSpaceOnUse">
<stop stop-color="white"/>
<stop offset="1" stop-color="white" stop-opacity="0"/>
</linearGradient>
<linearGradient id="paint1_linear_147_261" x1="169.408" y1="125.473" x2="118.753" y2="162.38" gradientUnits="userSpaceOnUse">
<stop stop-color="white"/>
<stop offset="1" stop-color="white" stop-opacity="0"/>
</linearGradient>
<linearGradient id="paint2_linear_147_261" x1="254.161" y1="70.3536" x2="200.513" y2="28.2016" gradientUnits="userSpaceOnUse">
<stop stop-color="white"/>
<stop offset="1" stop-color="white" stop-opacity="0"/>
</linearGradient>
<linearGradient id="paint3_linear_147_261" x1="254.161" y1="127.244" x2="199.039" y2="169.986" gradientUnits="userSpaceOnUse">
<stop stop-color="white"/>
<stop offset="1" stop-color="white" stop-opacity="0"/>
</linearGradient>
<linearGradient id="paint4_linear_147_261" x1="90.8593" y1="99.8306" x2="-13.489" y2="76.249" gradientUnits="userSpaceOnUse">
<stop stop-color="white"/>
<stop offset="1" stop-color="white" stop-opacity="0"/>
</linearGradient>
</defs>
</svg>
