<svg width="741" height="741" viewBox="0 0 741 741" fill="none" xmlns="http://www.w3.org/2000/svg">
<path fill-rule="evenodd" clip-rule="evenodd" d="M370.5 741C575.122 741 741 575.122 741 370.5C741 165.878 575.122 0 370.5 0C165.878 0 0 165.878 0 370.5C0 575.122 165.878 741 370.5 741ZM369.5 384C378.613 384 386 376.837 386 368C386 359.163 378.613 352 369.5 352C360.387 352 353 359.163 353 368C353 376.837 360.387 384 369.5 384Z" fill="url(#paint0_radial_55_145)"/>
<path fill-rule="evenodd" clip-rule="evenodd" d="M370 478C429.647 478 478 429.647 478 370C478 310.353 429.647 262 370 262C310.353 262 262 310.353 262 370C262 429.647 310.353 478 370 478ZM369.755 383.509C377.351 383.509 383.509 377.351 383.509 369.755C383.509 362.158 377.351 356 369.755 356C362.158 356 356 362.158 356 369.755C356 377.351 362.158 383.509 369.755 383.509Z" fill="#258023"/>
<path d="M432.881 376V368.727H435.338C435.906 368.727 436.373 368.824 436.737 369.018C437.102 369.21 437.372 369.474 437.547 369.81C437.722 370.147 437.81 370.529 437.81 370.957C437.81 371.386 437.722 371.766 437.547 372.097C437.372 372.429 437.103 372.689 436.741 372.879C436.379 373.066 435.916 373.159 435.352 373.159H433.364V372.364H435.324C435.712 372.364 436.025 372.307 436.261 372.193C436.5 372.08 436.673 371.919 436.78 371.71C436.889 371.5 436.943 371.249 436.943 370.957C436.943 370.666 436.889 370.412 436.78 370.194C436.671 369.976 436.497 369.808 436.258 369.69C436.019 369.569 435.703 369.509 435.31 369.509H433.761V376H432.881ZM436.304 372.733L438.094 376H437.071L435.31 372.733H436.304ZM438.877 376V368.727H443.266V369.509H439.758V371.966H443.039V372.747H439.758V375.219H443.323V376H438.877ZM450.306 371H449.425C449.373 370.747 449.282 370.524 449.152 370.332C449.024 370.141 448.868 369.98 448.683 369.849C448.501 369.717 448.298 369.617 448.076 369.551C447.853 369.485 447.621 369.452 447.38 369.452C446.94 369.452 446.541 369.563 446.183 369.786C445.828 370.008 445.545 370.336 445.334 370.769C445.126 371.202 445.022 371.734 445.022 372.364C445.022 372.993 445.126 373.525 445.334 373.958C445.545 374.391 445.828 374.719 446.183 374.942C446.541 375.164 446.94 375.276 447.38 375.276C447.621 375.276 447.853 375.242 448.076 375.176C448.298 375.11 448.501 375.012 448.683 374.881C448.868 374.749 449.024 374.587 449.152 374.395C449.282 374.201 449.373 373.978 449.425 373.727H450.306C450.24 374.099 450.119 374.432 449.944 374.725C449.769 375.019 449.551 375.268 449.29 375.474C449.03 375.678 448.738 375.833 448.413 375.94C448.091 376.046 447.747 376.099 447.38 376.099C446.76 376.099 446.208 375.948 445.725 375.645C445.242 375.342 444.862 374.911 444.585 374.352C444.308 373.794 444.17 373.131 444.17 372.364C444.17 371.597 444.308 370.934 444.585 370.375C444.862 369.816 445.242 369.385 445.725 369.082C446.208 368.779 446.76 368.628 447.38 368.628C447.747 368.628 448.091 368.681 448.413 368.788C448.738 368.894 449.03 369.05 449.29 369.256C449.551 369.46 449.769 369.709 449.944 370.002C450.119 370.293 450.24 370.626 450.306 371ZM457.465 372.364C457.465 373.131 457.327 373.794 457.05 374.352C456.773 374.911 456.393 375.342 455.91 375.645C455.427 375.948 454.876 376.099 454.255 376.099C453.635 376.099 453.083 375.948 452.6 375.645C452.117 375.342 451.737 374.911 451.461 374.352C451.184 373.794 451.045 373.131 451.045 372.364C451.045 371.597 451.184 370.934 451.461 370.375C451.737 369.816 452.117 369.385 452.6 369.082C453.083 368.779 453.635 368.628 454.255 368.628C454.876 368.628 455.427 368.779 455.91 369.082C456.393 369.385 456.773 369.816 457.05 370.375C457.327 370.934 457.465 371.597 457.465 372.364ZM456.613 372.364C456.613 371.734 456.508 371.202 456.297 370.769C456.089 370.336 455.806 370.008 455.448 369.786C455.093 369.563 454.696 369.452 454.255 369.452C453.815 369.452 453.416 369.563 453.059 369.786C452.703 370.008 452.421 370.336 452.21 370.769C452.001 371.202 451.897 371.734 451.897 372.364C451.897 372.993 452.001 373.525 452.21 373.958C452.421 374.391 452.703 374.719 453.059 374.942C453.416 375.164 453.815 375.276 454.255 375.276C454.696 375.276 455.093 375.164 455.448 374.942C455.806 374.719 456.089 374.391 456.297 373.958C456.508 373.525 456.613 372.993 456.613 372.364ZM458.546 376V368.727H461.004C461.572 368.727 462.038 368.824 462.403 369.018C462.767 369.21 463.037 369.474 463.212 369.81C463.388 370.147 463.475 370.529 463.475 370.957C463.475 371.386 463.388 371.766 463.212 372.097C463.037 372.429 462.769 372.689 462.406 372.879C462.044 373.066 461.581 373.159 461.018 373.159H459.029V372.364H460.989C461.378 372.364 461.69 372.307 461.927 372.193C462.166 372.08 462.339 371.919 462.445 371.71C462.554 371.5 462.609 371.249 462.609 370.957C462.609 370.666 462.554 370.412 462.445 370.194C462.337 369.976 462.163 369.808 461.923 369.69C461.684 369.569 461.368 369.509 460.975 369.509H459.427V376H458.546ZM461.97 372.733L463.759 376H462.737L460.975 372.733H461.97ZM466.787 376H464.543V368.727H466.887C467.592 368.727 468.196 368.873 468.698 369.164C469.2 369.453 469.584 369.868 469.852 370.411C470.119 370.95 470.253 371.597 470.253 372.349C470.253 373.107 470.118 373.759 469.848 374.306C469.578 374.851 469.185 375.27 468.669 375.563C468.153 375.854 467.526 376 466.787 376ZM465.423 375.219H466.73C467.332 375.219 467.83 375.103 468.225 374.871C468.621 374.639 468.915 374.308 469.11 373.88C469.304 373.451 469.401 372.941 469.401 372.349C469.401 371.762 469.305 371.257 469.113 370.833C468.921 370.407 468.635 370.08 468.254 369.853C467.873 369.623 467.398 369.509 466.83 369.509H465.423V375.219Z" fill="white"/>
<path d="M274.125 376.099C273.59 376.099 273.134 375.954 272.758 375.663C272.381 375.369 272.094 374.944 271.895 374.388C271.696 373.829 271.597 373.154 271.597 372.364C271.597 371.578 271.696 370.906 271.895 370.35C272.096 369.791 272.385 369.365 272.761 369.072C273.14 368.776 273.595 368.628 274.125 368.628C274.655 368.628 275.109 368.776 275.485 369.072C275.864 369.365 276.153 369.791 276.352 370.35C276.553 370.906 276.653 371.578 276.653 372.364C276.653 373.154 276.554 373.829 276.355 374.388C276.156 374.944 275.869 375.369 275.492 375.663C275.116 375.954 274.66 376.099 274.125 376.099ZM274.125 375.318C274.655 375.318 275.067 375.062 275.361 374.551C275.654 374.04 275.801 373.311 275.801 372.364C275.801 371.734 275.734 371.198 275.599 370.755C275.466 370.312 275.274 369.975 275.023 369.743C274.775 369.511 274.475 369.395 274.125 369.395C273.599 369.395 273.189 369.654 272.893 370.173C272.597 370.689 272.449 371.419 272.449 372.364C272.449 372.993 272.515 373.528 272.648 373.969C272.78 374.409 272.971 374.744 273.219 374.974C273.47 375.203 273.772 375.318 274.125 375.318ZM279.975 376.099C279.44 376.099 278.984 375.954 278.608 375.663C278.231 375.369 277.944 374.944 277.745 374.388C277.546 373.829 277.447 373.154 277.447 372.364C277.447 371.578 277.546 370.906 277.745 370.35C277.946 369.791 278.235 369.365 278.611 369.072C278.99 368.776 279.445 368.628 279.975 368.628C280.505 368.628 280.959 368.776 281.335 369.072C281.714 369.365 282.003 369.791 282.202 370.35C282.403 370.906 282.503 371.578 282.503 372.364C282.503 373.154 282.404 373.829 282.205 374.388C282.006 374.944 281.719 375.369 281.342 375.663C280.966 375.954 280.51 376.099 279.975 376.099ZM279.975 375.318C280.505 375.318 280.917 375.062 281.211 374.551C281.504 374.04 281.651 373.311 281.651 372.364C281.651 371.734 281.584 371.198 281.449 370.755C281.316 370.312 281.124 369.975 280.873 369.743C280.625 369.511 280.325 369.395 279.975 369.395C279.449 369.395 279.039 369.654 278.743 370.173C278.447 370.689 278.299 371.419 278.299 372.364C278.299 372.993 278.365 373.528 278.498 373.969C278.63 374.409 278.821 374.744 279.069 374.974C279.32 375.203 279.622 375.318 279.975 375.318ZM285.91 376.099C285.441 376.099 285.024 376.019 284.657 375.858C284.292 375.697 284.002 375.473 283.787 375.187C283.574 374.898 283.458 374.563 283.439 374.182H284.334C284.352 374.416 284.433 374.619 284.575 374.789C284.717 374.957 284.903 375.087 285.133 375.18C285.362 375.272 285.617 375.318 285.896 375.318C286.209 375.318 286.486 375.264 286.727 375.155C286.968 375.046 287.158 374.894 287.295 374.7C287.432 374.506 287.501 374.281 287.501 374.026C287.501 373.758 287.435 373.522 287.302 373.319C287.17 373.113 286.976 372.952 286.72 372.836C286.464 372.72 286.152 372.662 285.782 372.662H285.2V371.881H285.782C286.071 371.881 286.325 371.829 286.542 371.724C286.762 371.62 286.934 371.473 287.057 371.284C287.183 371.095 287.245 370.872 287.245 370.616C287.245 370.37 287.191 370.156 287.082 369.974C286.973 369.791 286.819 369.649 286.62 369.548C286.424 369.446 286.192 369.395 285.924 369.395C285.673 369.395 285.437 369.441 285.214 369.533C284.994 369.623 284.814 369.755 284.674 369.928C284.535 370.098 284.459 370.304 284.447 370.545H283.595C283.609 370.164 283.724 369.83 283.939 369.544C284.155 369.255 284.437 369.03 284.785 368.869C285.135 368.708 285.52 368.628 285.939 368.628C286.388 368.628 286.774 368.719 287.096 368.901C287.418 369.081 287.666 369.319 287.838 369.615C288.011 369.911 288.098 370.231 288.098 370.574C288.098 370.983 287.99 371.333 287.775 371.621C287.562 371.91 287.271 372.11 286.905 372.222V372.278C287.364 372.354 287.722 372.549 287.981 372.864C288.239 373.177 288.368 373.564 288.368 374.026C288.368 374.421 288.26 374.776 288.044 375.091C287.831 375.403 287.54 375.65 287.171 375.83C286.802 376.009 286.381 376.099 285.91 376.099Z" fill="white"/>
<path d="M366 272.202L373.273 270.213L373.273 271.108L367.349 272.628L367.349 272.699L373.273 274.247L373.273 275.241L367.349 276.79L367.349 276.861L373.273 278.381L373.273 279.276L366 277.287L366 276.378L371.795 274.773L371.795 274.716L366 273.111L366 272.202ZM373.273 280.854L366 280.854L366 279.973L373.273 279.973L373.273 280.854ZM373.273 287.986L366 287.986L366 287.134L371.71 283.171L371.71 283.1L366 283.1L366 282.219L373.273 282.219L373.273 283.072L367.548 287.049L367.548 287.12L373.273 287.12L373.273 287.986ZM372.491 288.951L373.273 288.951L373.273 294.405L372.491 294.405L372.491 292.119L366 292.119L366 291.238L372.491 291.238L372.491 288.951ZM366 295.365L373.273 295.365L373.273 299.754L372.491 299.754L372.491 296.245L370.034 296.245L370.034 299.527L369.253 299.527L369.253 296.245L366.781 296.245L366.781 299.811L366 299.811L366 295.365ZM366 300.941L373.273 300.941L373.273 303.399C373.273 303.967 373.176 304.433 372.982 304.798C372.79 305.162 372.526 305.432 372.19 305.607C371.853 305.783 371.471 305.87 371.043 305.87C370.614 305.87 370.234 305.783 369.903 305.607C369.571 305.432 369.311 305.164 369.121 304.801C368.934 304.439 368.841 303.976 368.841 303.413L368.841 301.424L369.636 301.424L369.636 303.384C369.636 303.773 369.693 304.085 369.807 304.322C369.92 304.561 370.081 304.734 370.29 304.84C370.5 304.949 370.751 305.004 371.043 305.004C371.334 305.004 371.588 304.949 371.806 304.84C372.024 304.731 372.192 304.557 372.31 304.318C372.431 304.079 372.491 303.763 372.491 303.37L372.491 301.822L366 301.822L366 300.941ZM369.267 304.365L366 306.154L366 305.132L369.267 303.37L369.267 304.365ZM366 306.938L373.273 306.938L373.273 311.327L372.491 311.327L372.491 307.818L370.034 307.818L370.034 311.1L369.253 311.1L369.253 307.818L366.781 307.818L366.781 311.384L366 311.384L366 306.938ZM371.455 316.492C371.814 316.449 372.094 316.276 372.293 315.973C372.491 315.67 372.591 315.298 372.591 314.858C372.591 314.536 372.539 314.254 372.435 314.013C372.33 313.774 372.187 313.587 372.005 313.452C371.823 313.319 371.616 313.253 371.384 313.253C371.189 313.253 371.022 313.299 370.883 313.391C370.746 313.486 370.631 313.607 370.538 313.754C370.448 313.9 370.374 314.054 370.315 314.215C370.258 314.376 370.212 314.524 370.176 314.659L369.977 315.398C369.928 315.587 369.859 315.798 369.771 316.03C369.684 316.264 369.564 316.488 369.413 316.701C369.263 316.917 369.072 317.094 368.837 317.234C368.603 317.373 368.315 317.443 367.974 317.443C367.581 317.443 367.226 317.34 366.909 317.134C366.592 316.931 366.34 316.632 366.153 316.239C365.966 315.849 365.872 315.374 365.872 314.815C365.872 314.295 365.956 313.844 366.124 313.462C366.292 313.084 366.527 312.785 366.827 312.568C367.128 312.352 367.477 312.23 367.875 312.202L367.875 313.111C367.6 313.135 367.373 313.227 367.193 313.388C367.016 313.551 366.883 313.757 366.795 314.006C366.71 314.257 366.668 314.527 366.668 314.815C366.668 315.152 366.722 315.453 366.831 315.721C366.942 315.988 367.096 316.2 367.293 316.357C367.491 316.513 367.723 316.591 367.989 316.591C368.23 316.591 368.427 316.524 368.578 316.389C368.73 316.254 368.853 316.076 368.947 315.856C369.042 315.636 369.125 315.398 369.196 315.142L369.452 314.247C369.615 313.679 369.848 313.229 370.151 312.898C370.454 312.566 370.851 312.401 371.341 312.401C371.748 312.401 372.103 312.511 372.406 312.731C372.712 312.953 372.948 313.252 373.116 313.626C373.287 314.002 373.372 314.422 373.372 314.886C373.372 315.355 373.288 315.772 373.12 316.136C372.954 316.501 372.727 316.79 372.438 317.003C372.149 317.218 371.821 317.332 371.455 317.344L371.455 316.492ZM373.273 317.866L373.273 318.875L369.878 320.892L369.878 320.977L373.273 322.994L373.273 324.003L368.997 321.375L366 321.375L366 320.494L368.997 320.494L373.273 317.866Z" fill="white"/>
<defs>
<radialGradient id="paint0_radial_55_145" cx="0" cy="0" r="1" gradientUnits="userSpaceOnUse" gradientTransform="translate(370.5 370.5) rotate(90) scale(370.5)">
<stop stop-color="#DBFF00"/>
<stop offset="0.276042" stop-color="#E2EAB4"/>
<stop offset="0.390625" stop-color="#DBFF00"/>
<stop offset="0.515625" stop-color="#E2EAB4"/>
<stop offset="0.651042" stop-color="#DBFF00"/>
<stop offset="0.78125" stop-color="#E2EAB4"/>
<stop offset="0.895833" stop-color="#DBFF00"/>
<stop offset="1" stop-color="#E2EAB4"/>
</radialGradient>
</defs>
</svg>
