<svg width="367" height="147" viewBox="0 0 367 147" fill="none" xmlns="http://www.w3.org/2000/svg">
<path d="M2 45.4L29.76 59H37.76V51L27.6 3L2 3L2 11L21.12 11L29.36 49.88L2 36.44L2 45.4ZM70.3869 36.44L50.1469 49.48L50.1469 14.68L70.3869 36.44ZM75.9869 42.36L91.5069 59H102.467L50.1469 3L42.1469 3L42.1469 59H50.1469L75.9869 42.36ZM112.494 17.64C112.494 13.32 116.014 9.8 120.334 9.8C124.574 9.8 128.094 13.32 128.094 17.64C128.094 21.96 124.574 25.48 120.334 25.48C116.014 25.48 112.494 21.96 112.494 17.64ZM112.494 59L112.494 31.4C114.814 32.76 117.454 33.48 120.334 33.48C129.054 33.48 136.094 26.36 136.094 17.64C136.094 8.92 129.054 1.88 120.334 1.88C117.454 1.88 114.814 2.6 112.494 3.96V3L104.494 3L104.494 59L112.494 59ZM169.534 36.44L149.294 49.48V14.68L169.534 36.44ZM175.134 42.36L190.654 59L201.614 59L149.294 3L141.294 3V59H149.294L175.134 42.36ZM199.641 59H208.201L224.921 14.44L241.561 59L255.161 59V3L247.161 3V51.08L229.161 3L220.601 3L199.641 59Z" fill="#FF550E"/>
<path d="M110.68 81L129.32 121L106.6 107.88L102.6 114.76L127.24 129H138.28V121.32L119.48 81L142.2 94.12L146.2 87.24L121.56 73H110.68V81ZM160.101 73H150.181L182.261 116.76V121L151.621 121V129H190.261V73H182.261V103.24L160.101 73ZM192.697 129H201.257L217.977 84.44L234.617 129H248.217V73H240.217V121.08L222.217 73H213.657L192.697 129ZM257.909 121V129H268.789L293.429 114.76L289.429 107.88L266.709 121L285.269 81H305.909V73H255.029V81H276.549L257.909 121ZM311.156 129H319.156V105L353.556 101.64V129H361.556V73H353.556V93.56L319.156 97.08V73H311.156V129Z" fill="#FF550E"/>
</svg>
