<svg width="568" height="256" viewBox="0 0 568 256" fill="none" xmlns="http://www.w3.org/2000/svg">
<path d="M41.6364 18.6364C41.2273 15.1818 39.5682 12.5 36.6591 10.5909C33.75 8.68182 30.1818 7.72727 25.9545 7.72727C22.8636 7.72727 20.1591 8.22727 17.8409 9.22727C15.5455 10.2273 13.75 11.6023 12.4545 13.3523C11.1818 15.1023 10.5455 17.0909 10.5455 19.3182C10.5455 21.1818 10.9886 22.7841 11.875 24.125C12.7841 25.4432 13.9432 26.5455 15.3523 27.4318C16.7614 28.2955 18.2386 29.0114 19.7841 29.5795C21.3295 30.125 22.75 30.5682 24.0455 30.9091L31.1364 32.8182C32.9545 33.2955 34.9773 33.9545 37.2045 34.7955C39.4545 35.6364 41.6023 36.7841 43.6477 38.2386C45.7159 39.6705 47.4205 41.5114 48.7614 43.7614C50.1023 46.0114 50.7727 48.7727 50.7727 52.0455C50.7727 55.8182 49.7841 59.2273 47.8068 62.2727C45.8523 65.3182 42.9886 67.7386 39.2159 69.5341C35.4659 71.3295 30.9091 72.2273 25.5455 72.2273C20.5455 72.2273 16.2159 71.4205 12.5568 69.8068C8.92045 68.1932 6.05682 65.9432 3.96591 63.0568C1.89773 60.1705 0.727273 56.8182 0.454546 53H9.18182C9.40909 55.6364 10.2955 57.8182 11.8409 59.5455C13.4091 61.25 15.3864 62.5227 17.7727 63.3636C20.1818 64.1818 22.7727 64.5909 25.5455 64.5909C28.7727 64.5909 31.6705 64.0682 34.2386 63.0227C36.8068 61.9545 38.8409 60.4773 40.3409 58.5909C41.8409 56.6818 42.5909 54.4545 42.5909 51.9091C42.5909 49.5909 41.9432 47.7045 40.6477 46.25C39.3523 44.7955 37.6477 43.6136 35.5341 42.7045C33.4205 41.7955 31.1364 41 28.6818 40.3182L20.0909 37.8636C14.6364 36.2955 10.3182 34.0568 7.13636 31.1477C3.95455 28.2386 2.36364 24.4318 2.36364 19.7273C2.36364 15.8182 3.42045 12.4091 5.53409 9.5C7.67045 6.56818 10.5341 4.29545 14.125 2.68182C17.7386 1.04545 21.7727 0.22727 26.2273 0.22727C30.7273 0.22727 34.7273 1.03409 38.2273 2.64772C41.7273 4.23863 44.5 6.42045 46.5455 9.19318C48.6136 11.9659 49.7045 15.1136 49.8182 18.6364H41.6364ZM119.742 36.0909C119.742 43.4545 118.413 49.8182 115.754 55.1818C113.095 60.5455 109.447 64.6818 104.811 67.5909C100.174 70.5 94.8788 71.9545 88.9242 71.9545C82.9697 71.9545 77.6742 70.5 73.0378 67.5909C68.4015 64.6818 64.7538 60.5455 62.0947 55.1818C59.4356 49.8182 58.106 43.4545 58.106 36.0909C58.106 28.7273 59.4356 22.3636 62.0947 17C64.7538 11.6364 68.4015 7.5 73.0378 4.59091C77.6742 1.68182 82.9697 0.22727 88.9242 0.22727C94.8788 0.22727 100.174 1.68182 104.811 4.59091C109.447 7.5 113.095 11.6364 115.754 17C118.413 22.3636 119.742 28.7273 119.742 36.0909ZM111.561 36.0909C111.561 30.0455 110.549 24.9432 108.526 20.7841C106.526 16.625 103.811 13.4773 100.379 11.3409C96.9697 9.20454 93.1515 8.13636 88.9242 8.13636C84.6969 8.13636 80.8674 9.20454 77.4356 11.3409C74.0265 13.4773 71.3106 16.625 69.2878 20.7841C67.2878 24.9432 66.2878 30.0455 66.2878 36.0909C66.2878 42.1364 67.2878 47.2386 69.2878 51.3977C71.3106 55.5568 74.0265 58.7045 77.4356 60.8409C80.8674 62.9773 84.6969 64.0455 88.9242 64.0455C93.1515 64.0455 96.9697 62.9773 100.379 60.8409C103.811 58.7045 106.526 55.5568 108.526 51.3977C110.549 47.2386 111.561 42.1364 111.561 36.0909ZM185.482 1.18182V71H177.3L139.255 16.1818H138.573V71H130.118V1.18182H138.3L176.482 56.1364H177.164V1.18182H185.482ZM246.287 23C245.537 20.7045 244.548 18.6477 243.321 16.8295C242.116 14.9886 240.673 13.4205 238.991 12.125C237.332 10.8295 235.446 9.84091 233.332 9.15909C231.219 8.47727 228.9 8.13636 226.378 8.13636C222.241 8.13636 218.48 9.20454 215.094 11.3409C211.707 13.4773 209.014 16.625 207.014 20.7841C205.014 24.9432 204.014 30.0455 204.014 36.0909C204.014 42.1364 205.025 47.2386 207.048 51.3977C209.071 55.5568 211.81 58.7045 215.264 60.8409C218.719 62.9773 222.605 64.0455 226.923 64.0455C230.923 64.0455 234.446 63.1932 237.491 61.4886C240.56 59.7614 242.946 57.3295 244.65 54.1932C246.378 51.0341 247.241 47.3182 247.241 43.0455L249.832 43.5909H228.832V36.0909H255.423V43.5909C255.423 49.3409 254.196 54.3409 251.741 58.5909C249.31 62.8409 245.946 66.1364 241.65 68.4773C237.378 70.7955 232.469 71.9545 226.923 71.9545C220.741 71.9545 215.31 70.5 210.628 67.5909C205.969 64.6818 202.332 60.5455 199.719 55.1818C197.128 49.8182 195.832 43.4545 195.832 36.0909C195.832 30.5682 196.571 25.6023 198.048 21.1932C199.548 16.7614 201.662 12.9886 204.389 9.875C207.116 6.76136 210.344 4.375 214.071 2.71591C217.798 1.05682 221.9 0.22727 226.378 0.22727C230.06 0.22727 233.491 0.784088 236.673 1.89772C239.878 2.98863 242.73 4.54545 245.23 6.56818C247.753 8.56818 249.855 10.9659 251.537 13.7614C253.219 16.5341 254.378 19.6136 255.014 23H246.287ZM62.3636 128.091C62.3636 135.455 61.0341 141.818 58.375 147.182C55.7159 152.545 52.0682 156.682 47.4318 159.591C42.7955 162.5 37.5 163.955 31.5455 163.955C25.5909 163.955 20.2955 162.5 15.6591 159.591C11.0227 156.682 7.375 152.545 4.71591 147.182C2.05682 141.818 0.727273 135.455 0.727273 128.091C0.727273 120.727 2.05682 114.364 4.71591 109C7.375 103.636 11.0227 99.5 15.6591 96.5909C20.2955 93.6818 25.5909 92.2273 31.5455 92.2273C37.5 92.2273 42.7955 93.6818 47.4318 96.5909C52.0682 99.5 55.7159 103.636 58.375 109C61.0341 114.364 62.3636 120.727 62.3636 128.091ZM54.1818 128.091C54.1818 122.045 53.1705 116.943 51.1477 112.784C49.1477 108.625 46.4318 105.477 43 103.341C39.5909 101.205 35.7727 100.136 31.5455 100.136C27.3182 100.136 23.4886 101.205 20.0568 103.341C16.6477 105.477 13.9318 108.625 11.9091 112.784C9.90909 116.943 8.90909 122.045 8.90909 128.091C8.90909 134.136 9.90909 139.239 11.9091 143.398C13.9318 147.557 16.6477 150.705 20.0568 152.841C23.4886 154.977 27.3182 156.045 31.5455 156.045C35.7727 156.045 39.5909 154.977 43 152.841C46.4318 150.705 49.1477 147.557 51.1477 143.398C53.1705 139.239 54.1818 134.136 54.1818 128.091ZM72.7395 163V93.1818H114.603V100.682H81.1941V124.273H111.467V131.773H81.1941V163H72.7395ZM144.585 100.682V93.1818H196.949V100.682H174.994V163H166.54V100.682H144.585ZM206.157 163V93.1818H214.612V124.273H251.839V93.1818H260.293V163H251.839V131.773H214.612V163H206.157ZM273.38 163V93.1818H315.516V100.682H281.834V124.273H313.334V131.773H281.834V155.5H316.061V163H273.38ZM11.9091 185.182V255H3.45455V185.182H11.9091ZM80.3844 185.182V255H72.2026L34.1572 200.182H33.4753V255H25.0208V185.182H33.2026L71.3844 240.136H72.0662V185.182H80.3844ZM112.804 192.682V185.182H165.168V192.682H143.213V255H134.758V192.682H112.804ZM174.376 255V185.182H182.83V216.273H220.058V185.182H228.512V255H220.058V223.773H182.83V255H174.376ZM241.598 255V185.182H283.735V192.682H250.053V216.273H281.553V223.773H250.053V247.5H284.28V255H241.598Z" fill="black"/>
<path d="M371.62 163H350.075V93.1818H372.575C379.347 93.1818 385.143 94.5795 389.961 97.375C394.779 100.148 398.472 104.136 401.04 109.341C403.609 114.523 404.893 120.727 404.893 127.955C404.893 135.227 403.597 141.489 401.006 146.739C398.415 151.966 394.643 155.989 389.688 158.807C384.734 161.602 378.711 163 371.62 163ZM358.529 155.5H371.075C376.847 155.5 381.631 154.386 385.427 152.159C389.222 149.932 392.052 146.761 393.915 142.648C395.779 138.534 396.711 133.636 396.711 127.955C396.711 122.318 395.79 117.466 393.95 113.398C392.109 109.307 389.359 106.17 385.7 103.989C382.04 101.784 377.484 100.682 372.029 100.682H358.529V155.5ZM474.144 128.091C474.144 135.455 472.814 141.818 470.155 147.182C467.496 152.545 463.848 156.682 459.212 159.591C454.575 162.5 449.28 163.955 443.325 163.955C437.371 163.955 432.075 162.5 427.439 159.591C422.803 156.682 419.155 152.545 416.496 147.182C413.837 141.818 412.507 135.455 412.507 128.091C412.507 120.727 413.837 114.364 416.496 109C419.155 103.636 422.803 99.5 427.439 96.5909C432.075 93.6818 437.371 92.2273 443.325 92.2273C449.28 92.2273 454.575 93.6818 459.212 96.5909C463.848 99.5 467.496 103.636 470.155 109C472.814 114.364 474.144 120.727 474.144 128.091ZM465.962 128.091C465.962 122.045 464.95 116.943 462.928 112.784C460.928 108.625 458.212 105.477 454.78 103.341C451.371 101.205 447.553 100.136 443.325 100.136C439.098 100.136 435.269 101.205 431.837 103.341C428.428 105.477 425.712 108.625 423.689 112.784C421.689 116.943 420.689 122.045 420.689 128.091C420.689 134.136 421.689 139.239 423.689 143.398C425.712 147.557 428.428 150.705 431.837 152.841C435.269 154.977 439.098 156.045 443.325 156.045C447.553 156.045 451.371 154.977 454.78 152.841C458.212 150.705 460.928 147.557 462.928 143.398C464.95 139.239 465.962 134.136 465.962 128.091ZM532.247 115C531.497 112.705 530.508 110.648 529.281 108.83C528.076 106.989 526.633 105.42 524.951 104.125C523.292 102.83 521.406 101.841 519.292 101.159C517.179 100.477 514.86 100.136 512.338 100.136C508.201 100.136 504.44 101.205 501.054 103.341C497.667 105.477 494.974 108.625 492.974 112.784C490.974 116.943 489.974 122.045 489.974 128.091C489.974 134.136 490.985 139.239 493.008 143.398C495.031 147.557 497.77 150.705 501.224 152.841C504.679 154.977 508.565 156.045 512.883 156.045C516.883 156.045 520.406 155.193 523.451 153.489C526.52 151.761 528.906 149.33 530.61 146.193C532.338 143.034 533.201 139.318 533.201 135.045L535.792 135.591H514.792V128.091H541.383V135.591C541.383 141.341 540.156 146.341 537.701 150.591C535.27 154.841 531.906 158.136 527.61 160.477C523.338 162.795 518.429 163.955 512.883 163.955C506.701 163.955 501.27 162.5 496.588 159.591C491.929 156.682 488.292 152.545 485.679 147.182C483.088 141.818 481.792 135.455 481.792 128.091C481.792 122.568 482.531 117.602 484.008 113.193C485.508 108.761 487.622 104.989 490.349 101.875C493.076 98.7614 496.304 96.375 500.031 94.7159C503.758 93.0568 507.86 92.2273 512.338 92.2273C516.02 92.2273 519.451 92.7841 522.633 93.8977C525.838 94.9886 528.69 96.5455 531.19 98.5682C533.713 100.568 535.815 102.966 537.497 105.761C539.179 108.534 540.338 111.614 540.974 115H532.247Z" fill="#FFA841"/>
<path d="M318.293 255V185.182H341.884C347.361 185.182 351.839 186.17 355.316 188.148C358.816 190.102 361.407 192.75 363.089 196.091C364.771 199.432 365.611 203.159 365.611 207.273C365.611 211.386 364.771 215.125 363.089 218.489C361.43 221.852 358.861 224.534 355.384 226.534C351.907 228.511 347.452 229.5 342.021 229.5H325.111V222H341.748C345.498 222 348.509 221.352 350.782 220.057C353.055 218.761 354.702 217.011 355.725 214.807C356.771 212.58 357.293 210.068 357.293 207.273C357.293 204.477 356.771 201.977 355.725 199.773C354.702 197.568 353.043 195.841 350.748 194.591C348.452 193.318 345.407 192.682 341.611 192.682H326.748V255H318.293ZM434.3 220.091C434.3 227.455 432.97 233.818 430.311 239.182C427.652 244.545 424.004 248.682 419.368 251.591C414.732 254.5 409.436 255.955 403.482 255.955C397.527 255.955 392.232 254.5 387.595 251.591C382.959 248.682 379.311 244.545 376.652 239.182C373.993 233.818 372.664 227.455 372.664 220.091C372.664 212.727 373.993 206.364 376.652 201C379.311 195.636 382.959 191.5 387.595 188.591C392.232 185.682 397.527 184.227 403.482 184.227C409.436 184.227 414.732 185.682 419.368 188.591C424.004 191.5 427.652 195.636 430.311 201C432.97 206.364 434.3 212.727 434.3 220.091ZM426.118 220.091C426.118 214.045 425.107 208.943 423.084 204.784C421.084 200.625 418.368 197.477 414.936 195.341C411.527 193.205 407.709 192.136 403.482 192.136C399.254 192.136 395.425 193.205 391.993 195.341C388.584 197.477 385.868 200.625 383.845 204.784C381.845 208.943 380.845 214.045 380.845 220.091C380.845 226.136 381.845 231.239 383.845 235.398C385.868 239.557 388.584 242.705 391.993 244.841C395.425 246.977 399.254 248.045 403.482 248.045C407.709 248.045 411.527 246.977 414.936 244.841C418.368 242.705 421.084 239.557 423.084 235.398C425.107 231.239 426.118 226.136 426.118 220.091ZM500.039 185.182V255H491.858L453.812 200.182H453.13V255H444.676V185.182H452.858L491.039 240.136H491.721V185.182H500.039ZM534.663 255H513.117V185.182H535.617C542.39 185.182 548.185 186.58 553.003 189.375C557.822 192.148 561.515 196.136 564.083 201.341C566.651 206.523 567.935 212.727 567.935 219.955C567.935 227.227 566.64 233.489 564.049 238.739C561.458 243.966 557.685 247.989 552.731 250.807C547.776 253.602 541.753 255 534.663 255ZM521.572 247.5H534.117C539.89 247.5 544.674 246.386 548.469 244.159C552.265 241.932 555.094 238.761 556.958 234.648C558.822 230.534 559.753 225.636 559.753 219.955C559.753 214.318 558.833 209.466 556.992 205.398C555.151 201.307 552.401 198.17 548.742 195.989C545.083 193.784 540.526 192.682 535.072 192.682H521.572V247.5Z" fill="#2E742D"/>
</svg>
