<svg width="762" height="102" viewBox="0 0 762 102" fill="none" xmlns="http://www.w3.org/2000/svg">
<path d="M16.9091 11.1818V81H8.45455V11.1818H16.9091ZM36.0208 11.1818V17.3182C36.0208 19.1818 35.6799 21.1705 34.9981 23.2841C34.339 25.375 33.3617 27.4091 32.0662 29.3864C30.7935 31.3409 29.2481 33.0455 27.4299 34.5L23.0662 30.9545C24.4981 28.9091 25.7367 26.7841 26.7822 24.5795C27.8503 22.3523 28.3844 19.9773 28.3844 17.4545V11.1818H36.0208ZM43.8995 11.1818H53.9905L77.7177 69.1364H78.5359L102.263 11.1818H112.354V81H104.445V27.9545H103.763L81.945 81H74.3086L52.4905 27.9545H51.8086V81H43.8995V11.1818ZM144.808 18.6818V11.1818H197.171V18.6818H175.217V81H166.762V18.6818H144.808ZM214.834 11.1818V81H206.38V11.1818H214.834ZM227.946 81V11.1818H251.537C256.991 11.1818 261.469 12.1136 264.969 13.9773C268.469 15.8182 271.059 18.3523 272.741 21.5795C274.423 24.8068 275.264 28.4773 275.264 32.5909C275.264 36.7045 274.423 40.3523 272.741 43.5341C271.059 46.7159 268.48 49.2159 265.003 51.0341C261.525 52.8295 257.082 53.7273 251.673 53.7273H232.582V46.0909H251.4C255.128 46.0909 258.128 45.5455 260.4 44.4545C262.696 43.3636 264.355 41.8182 265.378 39.8182C266.423 37.7955 266.946 35.3864 266.946 32.5909C266.946 29.7955 266.423 27.3523 265.378 25.2614C264.332 23.1705 262.662 21.5568 260.366 20.4205C258.071 19.2614 255.037 18.6818 251.264 18.6818H236.4V81H227.946ZM260.809 49.6364L277.991 81H268.173L251.264 49.6364H260.809ZM285.512 81V11.1818H327.648V18.6818H293.967V42.2727H325.467V49.7727H293.967V73.5H328.194V81H285.512ZM360.592 81H339.047V11.1818H361.547C368.32 11.1818 374.115 12.5795 378.933 15.375C383.752 18.1477 387.445 22.1364 390.013 27.3409C392.581 32.5227 393.865 38.7273 393.865 45.9545C393.865 53.2273 392.57 59.4886 389.979 64.7386C387.388 69.9659 383.615 73.9886 378.661 76.8068C373.706 79.6023 367.683 81 360.592 81ZM347.502 73.5H360.047C365.82 73.5 370.604 72.3864 374.399 70.1591C378.195 67.9318 381.024 64.7614 382.888 60.6477C384.752 56.5341 385.683 51.6364 385.683 45.9545C385.683 40.3182 384.763 35.4659 382.922 31.3977C381.081 27.3068 378.331 24.1705 374.672 21.9886C371.013 19.7841 366.456 18.6818 361.002 18.6818H347.502V73.5Z" fill="black"/>
<ellipse cx="466.5" cy="85.5" rx="31.5" ry="6.5" fill="black"/>
<ellipse cx="499.5" cy="79" rx="7.5" ry="2" fill="black"/>
<ellipse cx="507.5" cy="84" rx="7.5" ry="2" fill="black"/>
<ellipse cx="504.5" cy="89" rx="7.5" ry="2" fill="black"/>
<ellipse cx="496.5" cy="94" rx="7.5" ry="2" fill="black"/>
<ellipse cx="563.5" cy="77.5" rx="31.5" ry="6.5" fill="black"/>
<ellipse cx="596.5" cy="71" rx="7.5" ry="2" fill="black"/>
<ellipse cx="604.5" cy="76" rx="7.5" ry="2" fill="black"/>
<ellipse cx="601.5" cy="81" rx="7.5" ry="2" fill="black"/>
<ellipse cx="593.5" cy="86" rx="7.5" ry="2" fill="black"/>
<ellipse cx="667.5" cy="91.5" rx="31.5" ry="6.5" fill="black"/>
<ellipse cx="700.5" cy="85" rx="7.5" ry="2" fill="black"/>
<ellipse cx="708.5" cy="90" rx="7.5" ry="2" fill="black"/>
<ellipse cx="705.5" cy="95" rx="7.5" ry="2" fill="black"/>
<ellipse cx="697.5" cy="100" rx="7.5" ry="2" fill="black"/>
<ellipse cx="761.5" cy="76.5" rx="31.5" ry="6.5" fill="black"/>
</svg>
