<svg width="300" height="304" viewBox="0 0 300 304" fill="none" xmlns="http://www.w3.org/2000/svg">
<path fill-rule="evenodd" clip-rule="evenodd" d="M245.093 106.013C274.954 155.173 259.309 219.232 210.148 249.093C160.988 278.954 96.9287 263.309 67.0679 214.148C51.787 188.991 48.423 159.933 55.3688 133.552L127.708 155.008L61.0567 117.43C69.3908 98.8176 83.2645 82.4558 102.013 71.0679C116.858 62.0506 133.062 57.183 149.272 56.1349L151.995 117.75L163.367 56.1803C195.906 58.4903 226.869 76.0096 245.093 106.013Z" fill="#151515" fill-opacity="0.1"/>
<path fill-rule="evenodd" clip-rule="evenodd" d="M232.093 89.0126C261.954 138.173 246.309 202.232 197.148 232.093C147.988 261.954 83.9287 246.309 54.0679 197.148C38.787 171.991 35.423 142.933 42.3688 116.552L114.708 138.008L48.0567 100.43C56.3908 81.8176 70.2645 65.4558 89.0126 54.0679C103.858 45.0506 120.062 40.183 136.272 39.1349L138.995 100.75L150.367 39.1803C182.906 41.4903 213.869 59.0096 232.093 89.0126Z" fill="#2E742D"/>
</svg>
