<svg width="69" height="73" viewBox="0 0 69 73" fill="none" xmlns="http://www.w3.org/2000/svg">
<path fill-rule="evenodd" clip-rule="evenodd" d="M42.8607 19.9976C61.376 -1.51242 79.4449 30.3046 51.7836 35.458C79.4449 40.8356 61.1529 72.4285 42.8607 50.9182C52.2298 77.8058 15.8685 77.5819 25.2377 50.9182C6.72241 72.4285 -11.3467 40.8356 16.3147 35.458C-11.5698 30.3046 6.72241 -1.28837 25.2377 19.9976C15.6454 -6.66587 52.2298 -6.66587 42.8607 19.9976ZM33.9375 31.4249C36.1685 31.4249 38.176 33.2174 38.176 35.458C38.176 37.6986 36.1685 39.7153 33.9375 39.7153C31.7069 39.7153 29.9221 37.6986 29.9221 35.458C29.9221 33.2174 31.7069 31.4249 33.9375 31.4249Z" fill="#FF00B8"/>
<path fill-rule="evenodd" clip-rule="evenodd" d="M45.6074 27.1571C65.7886 16.735 69.4806 45.8236 47.5069 41.3347C66.2894 53.6527 43.2178 71.6379 36.2376 50.1444C35.0037 72.9515 8.2395 61.8482 23.2332 44.8437C3.05197 55.266 -0.708202 26.3439 21.3334 30.6662C2.31836 18.4478 25.3902 0.462622 32.603 21.8564C33.6043 -0.851271 60.6009 10.1527 45.6074 27.1571ZM35.56 32.9686C37.2063 33.6396 38.1445 35.5761 37.4655 37.2418C36.7866 38.9075 34.694 39.8029 33.0478 39.1319C31.4017 38.461 30.6958 36.4248 31.3748 34.7591C32.0537 33.0934 33.9139 32.2976 35.56 32.9686Z" fill="#FFC4EE"/>
</svg>
