<svg width="241" height="250" viewBox="0 0 241 250" fill="none" xmlns="http://www.w3.org/2000/svg">
<path fill-rule="evenodd" clip-rule="evenodd" d="M129.709 33.8861L141.069 136.58L152.394 36.5512C201.865 47.9474 236.764 94.2802 232.447 146.416C227.71 203.624 177.548 246.155 120.408 241.412C91.1672 238.985 65.7654 224.649 48.5657 203.561L108.266 157.756L38.9004 189.509C28.7781 171.859 23.7172 151.058 25.5239 129.24C26.9544 111.965 32.5272 96.0276 41.1836 82.3265L92.4596 116.286L49.4813 70.9753C68.8347 47.9448 97.8789 33.6302 129.709 33.8861Z" fill="#151515" fill-opacity="0.1"/>
<path fill-rule="evenodd" clip-rule="evenodd" d="M112.762 7.93784L124.122 110.632L135.447 10.6029C184.919 21.9992 219.818 68.3319 215.501 120.468C210.763 177.676 160.602 220.207 103.461 215.464C74.2209 213.037 48.8192 198.7 31.6194 177.612L91.3194 131.807L21.9541 163.56C11.8318 145.91 6.77094 125.109 8.57758 103.292C10.0081 86.0165 15.5809 70.0794 24.2373 56.3783L75.5134 90.3375L32.535 45.0271C51.8884 21.9966 80.9326 7.68196 112.762 7.93784Z" fill="#2E742D"/>
</svg>
