<svg width="1482" height="967" viewBox="0 0 1482 967" fill="none" xmlns="http://www.w3.org/2000/svg">
<path fill-rule="evenodd" clip-rule="evenodd" d="M177.501 78.04C164.682 78.04 153.059 66.8502 139.49 53.7883C123.95 38.8283 105.859 21.4125 80.5 15.54C67.3543 11.54 31 7.03996 19 15.54C9.4 22.34 5.00069 32.04 4.00104 36.04C-5.92249 68.7292 4.0878 73.9882 17.9204 81.2553C27.7844 86.4374 39.592 92.6407 47.501 110.54C58.6676 135.812 51.8729 145.713 41.8346 160.34C34.7927 170.602 26.1546 183.189 21.001 205.04C8.50104 258.04 55.001 299.54 93.001 328.54C131.001 357.54 190.001 349.54 203.501 276.54C213.634 221.746 243.768 193.995 264.512 174.892C271.404 168.545 277.26 163.153 281.001 158.04C296.001 137.54 359.001 117.04 406.501 152.04C443.467 179.278 488.002 184.41 549.299 191.474L549.3 191.474C566.769 193.487 585.598 195.657 606.001 198.54C698.001 211.54 717.001 184.54 723.001 170.04C729.001 155.54 689.501 112.04 568.001 126.54C482.786 136.71 429.79 103.1 392.627 79.5308C376.803 69.495 363.849 61.2798 352.501 59.04C318.263 52.2825 290.114 62.1667 267.687 70.0415L267.686 70.0421C265.222 70.9072 262.827 71.7481 260.501 72.54C241.459 79.0224 216.835 78.6106 193.548 78.2211H193.547C188.095 78.1299 182.717 78.04 177.501 78.04ZM684.001 164.54C692.001 178.54 671.001 181.04 659.501 180.54C644.501 180.54 610.501 178.44 594.501 170.04C582.09 163.524 574.878 165.095 565.097 167.226C559.117 168.528 552.177 170.04 542.501 170.04C517.001 170.04 533.501 145.54 560.501 152.04C578.654 156.41 590.93 154.904 602.801 153.448C608.586 152.738 614.275 152.04 620.501 152.04C623.719 152.04 627.382 151.897 631.295 151.743L631.296 151.743C650.486 150.992 675.695 150.004 684.001 164.54ZM123.501 257.54C167.001 233.04 185.501 220.04 185.501 186.04C185.501 166.252 201.083 159.843 216.968 153.311C228.376 148.619 239.94 143.863 246.001 134.04C260.501 110.54 248.001 99.04 235.501 96.04C230.493 94.838 218.743 96.5254 205.011 98.4975C184.467 101.448 159.486 105.035 146.001 100.54C135.66 97.0931 127.538 87.6266 119.497 78.256C110.042 67.2371 100.701 56.3506 88.001 55.54C64.501 54.04 45.001 70.04 50.001 78.04C51.4525 80.3624 54.3789 83.1905 57.7525 86.4508C65.9999 94.4213 76.9204 104.975 75.501 117.04C75.1668 119.881 74.8605 123.419 74.5169 127.39C72.8038 147.183 70.1616 177.711 58.501 186.04C44.501 196.04 39.001 286.54 123.501 257.54Z" fill="#151515"/>
<path fill-rule="evenodd" clip-rule="evenodd" d="M576.799 278.54C560.07 271.04 515.469 254.34 470.896 247.54C415.18 239.04 387.535 230.54 351.383 198.04C315.232 165.54 289.288 180.04 279.08 198.04C268.873 216.04 248.032 258.04 251.435 289.54C254.837 321.04 277.804 340.54 301.196 333.54C315.383 329.295 315.022 313.463 314.627 296.196C314.371 284.991 314.101 273.181 317.784 263.54C327.141 239.04 381.155 267.54 396.467 278.54C402.273 282.712 412.362 283.288 424.435 283.977C444.199 285.106 469.281 286.538 489.61 304.54C510.243 322.811 504.877 350.609 498.083 385.807C494.093 406.476 489.61 429.697 489.61 455.04C489.61 523.54 567.443 583.54 598.916 583.54C608.743 583.54 621.93 581.687 635.95 579.718C666.831 575.379 701.757 570.473 713.75 583.54C731.188 602.54 809.871 575.04 778.823 530.04C765.288 510.422 743.75 497.741 721.821 484.83C693.449 468.126 664.423 451.036 651.229 418.04C646.816 407.003 642.539 395.597 638.292 384.272C620.031 335.572 602.334 288.379 576.799 278.54ZM572.121 314.04C567.017 305.04 554.513 289.74 545.326 300.54C533.843 314.04 531.291 333.54 532.567 348.54C532.971 353.289 530.348 365.707 527.1 381.08C520.091 414.262 510.173 461.214 521.509 474.54C525.807 479.593 529.619 486.526 533.753 494.042C545.572 515.534 560.016 541.799 595.938 542.54C615.565 542.945 632.056 541.711 646.511 540.629C667.765 539.039 684.617 537.778 700.566 542.54C727.36 550.54 733.74 527.04 700.566 506.54C691.046 500.658 682.262 496.134 674.304 492.035C654.529 481.851 639.853 474.292 631.665 455.04C627.446 445.122 623.171 432.707 618.838 420.126C611.375 398.458 603.742 376.295 595.938 365.54C586.071 351.94 575.949 325.54 572.121 314.04Z" fill="#151515"/>
<path fill-rule="evenodd" clip-rule="evenodd" d="M454.5 398.04C448.1 412.84 421.167 423.873 408.5 427.54C402.667 430.04 388.7 437.54 379.5 447.54C368 460.04 376.5 509.04 408.5 536.54C440.5 564.04 430.5 603.54 408.5 629.04C407.187 630.562 405.882 632.067 404.589 633.558C384.215 657.057 366.552 677.428 359.5 715.04C355.084 738.593 378.578 753.305 401.81 767.852C418.033 778.01 434.127 788.088 440.5 801.04C456 832.54 426 865.04 359.5 877.54C293 890.04 274.5 836.04 260 774.04C253.833 747.67 255.987 722.746 257.807 701.694C260.266 673.25 262.113 651.873 242 643.54C220.64 634.691 200.957 638.319 176.471 642.831C160.835 645.713 143.24 648.955 122 649.54C67.5 651.04 13 612.54 4.99995 581.04C0.664076 563.968 16.8903 547.483 34.6537 529.436C49.6653 514.185 65.7748 497.819 71.5 479.04C78.1842 457.116 62.8507 451.061 44.9185 443.981C29.316 437.82 11.7463 430.883 4.99995 412.04C-9.50005 371.54 24 324.54 42.5 344.04C61 363.54 108.5 368.04 160.5 358.04C197.18 350.986 203.26 353.137 219.979 359.053C226.962 361.524 235.801 364.652 249.5 368.04C296 379.54 322.5 351.54 331.5 324.54C340.5 297.54 356 295.04 367 301.04C378 307.04 394 314.04 440.5 324.54C483.352 334.216 465.907 372.767 456.645 393.235C455.857 394.977 455.128 396.589 454.5 398.04ZM404 375.04C409.6 391.04 385.667 401.707 373 405.04C364.667 411.04 346 426.64 338 441.04C328 459.04 342 488.04 367 526.04C392 564.04 373 591.04 360 609.04C347 627.04 310 600.04 285 560.04C268.657 533.892 273.681 515.436 279.12 495.453C282.002 484.867 285 473.853 285 461.04C285 433.842 254.201 433.661 224.775 433.488C214.169 433.426 203.742 433.365 195 432.04C162 427.04 175 391.04 210 387.04C230.551 384.691 243.172 388.204 255.759 391.707C264.608 394.169 273.441 396.627 285 397.04C313 398.04 352 375.04 373 352.04C390.844 332.497 395.692 348.332 401.04 365.803L401.04 365.804C401.986 368.893 402.948 372.035 404 375.04ZM124 593.04C147.333 595.04 195.8 592.24 203 565.04C206.618 551.37 216.218 541.903 224.389 533.845C236.542 521.859 245.536 512.989 227 498.04C211.916 485.876 198.963 486.023 187.335 486.154C175.064 486.294 164.268 486.416 154 472.04C134 444.04 160 400.04 173 389.04C186 378.04 171 369.04 134 376.04C128.584 377.065 123.832 378.025 119.585 378.884C94.8149 383.89 87.1942 385.43 65 376.04C39 365.04 20 362.04 26 383.04C32 404.04 57.9999 431.04 76.9999 438.04C95.9999 445.04 117 455.04 111 472.04C106.925 483.586 98.2374 491.903 89.3231 500.437C85.1119 504.468 80.85 508.548 76.9999 513.04C72.9281 517.791 64.596 523.808 55.7545 530.193C38.5396 542.624 19.3932 556.451 26 565.04C34 575.44 94.6666 588.04 124 593.04ZM351.5 638.04C368.3 640.04 358.5 660.207 351.5 670.04C345.333 681.707 334.5 712.04 340.5 740.04C344.689 759.587 364.005 774.455 381.203 787.694C394.799 798.159 407.072 807.606 409.5 817.54C415 840.04 351.5 851.54 315 846.54C285.298 842.471 279.435 784.104 275.587 745.798L275.587 745.798C274.706 737.03 273.931 729.314 273 723.54C269.932 704.519 271.194 687.004 272.28 671.918L272.28 671.918C272.965 662.418 273.58 653.882 273 646.54C271.5 627.54 291.5 617.54 293 627.04C294.11 634.072 314.124 635.351 332.965 636.555L332.966 636.555C339.578 636.977 346.045 637.391 351.5 638.04ZM276 607.04C273.667 614.707 263 629.44 239 627.04C209 624.04 193.5 615.04 196.5 603.54C198.027 597.688 202.531 594.167 207.51 590.274C212.315 586.518 217.562 582.416 221 575.54C223.757 570.027 227.987 567.615 232.133 565.251C238.514 561.613 244.697 558.088 245 543.54C245.119 537.818 245.551 532.067 245.97 526.485C247.309 508.653 248.52 492.537 239 484.54C232.911 479.426 222.67 478.582 213.767 477.848C204.392 477.076 196.5 476.426 196.5 471.04C196.5 460.54 207.5 446.54 221 447.04C223.041 447.116 225.276 447.157 227.619 447.2C240.774 447.443 257.331 447.749 262 454.54C267.5 462.54 272 479.04 267 490.54C262 502.04 257 538.04 262 553.04C267 568.04 277.448 603.54 276 607.04Z" fill="#151515"/>
<path fill-rule="evenodd" clip-rule="evenodd" d="M814 23.04C797.333 15.7067 755.3 1.84 720.5 5.04C702.832 6.66469 691.35 9.93913 679.722 13.2551C662.722 18.1032 645.411 23.04 608 23.04C579.919 23.04 546.971 15.8878 517.789 9.55324C481.501 1.676 451.037 -4.93693 443 5.04C428.5 23.04 446.5 68.04 487.5 68.04C506.449 68.04 519.737 65.5836 532.696 63.1882C547.777 60.4006 562.411 57.6954 585 59.04C603.817 60.1601 618.118 67.0011 631.5 73.4024C647.986 81.2887 663.077 88.5077 683.5 83.54C720.5 74.54 786 70.54 814 77.04C819.859 78.4001 826.987 80.6576 834.606 83.0706C863.401 92.1901 899.209 103.531 900 77.04C900.294 67.1852 901.757 57.9362 903.051 49.7512C906.156 30.1123 908.293 16.5987 891 15.54C879.784 14.8533 872.13 16.3673 862.811 18.2108C851.773 20.3942 838.399 23.04 814 23.04ZM799 56.04C805.333 54.3733 822 52.04 838 56.04C858 61.04 871 55.04 863.5 48.54C859.191 44.8054 849.105 44.537 837.414 44.2259C828.758 43.9955 819.222 43.7418 810.5 42.04C803.004 40.5773 797.045 38.5127 791.255 36.5066C781.211 33.0269 771.675 29.7229 755.5 30.04C749.246 30.1626 738.84 29.8341 726.763 29.4527C689.599 28.2793 636.604 26.6059 640 36.04C644.5 48.54 659.5 70.04 696.5 63.04C726.1 57.44 777.167 56.04 799 56.04Z" fill="#151515"/>
<path fill-rule="evenodd" clip-rule="evenodd" d="M813.963 638.08C797.296 630.747 755.263 616.88 720.463 620.08C702.794 621.705 691.313 624.979 679.685 628.295C662.685 633.143 645.374 638.08 607.963 638.08C579.882 638.08 546.934 630.928 517.752 624.593C481.464 616.716 451 610.103 442.963 620.08C428.463 638.08 446.463 683.08 487.463 683.08C506.412 683.08 519.7 680.624 532.659 678.228C547.74 675.441 562.374 672.735 584.963 674.08C603.78 675.2 618.081 682.041 631.463 688.442C647.949 696.329 663.04 703.548 683.463 698.58C720.463 689.58 785.963 685.58 813.963 692.08C819.822 693.44 826.95 695.698 834.569 698.111C863.364 707.23 899.172 718.571 899.963 692.08C900.257 682.225 901.719 672.976 903.014 664.791C906.119 645.152 908.256 631.639 890.963 630.58C879.747 629.893 872.093 631.407 862.774 633.251C851.736 635.434 838.362 638.08 813.963 638.08ZM798.963 671.08C805.296 669.413 821.963 667.08 837.963 671.08C857.963 676.08 870.963 670.08 863.463 663.58C859.154 659.845 849.068 659.577 837.377 659.266C828.721 659.036 819.185 658.782 810.463 657.08C802.966 655.617 797.008 653.553 791.218 651.547C781.174 648.067 771.638 644.763 755.463 645.08C749.209 645.203 738.803 644.874 726.726 644.493C689.562 643.319 636.567 641.646 639.963 651.08C644.463 663.58 659.463 685.08 696.463 678.08C726.063 672.48 777.13 671.08 798.963 671.08Z" fill="#151515"/>
<path fill-rule="evenodd" clip-rule="evenodd" d="M767.524 411.066C761.281 400.749 747.298 397.292 730.975 393.257C712.281 388.634 690.518 383.254 673.799 365.94C664.422 357.468 643.369 330.582 643.846 316.444C644.228 305.134 649.299 296.481 651.787 293.568C671.265 268.352 680.051 273.637 692.193 280.939C700.851 286.146 711.215 292.38 728.379 289.311C752.612 284.978 756.666 274.291 762.655 258.503C766.857 247.427 772.011 233.841 785.751 218.176C819.079 180.181 872.59 195.732 912.665 211.03C952.739 226.328 975.525 278.028 927.811 327.369C891.996 364.404 886.034 403.283 881.93 430.046C880.567 438.938 879.408 446.493 877.428 452.199C869.488 475.076 884.926 536.583 934.09 556.365C972.35 571.759 997.858 604.897 1032.97 650.506C1042.97 663.504 1053.75 677.514 1065.84 692.416C1120.31 759.606 1109.49 789.129 1101.62 801.6C1093.76 814.071 1042.17 805.208 993.783 699.782C959.842 625.839 909.036 600.903 873.408 583.416C858.237 575.97 845.819 569.875 838.626 561.922C816.925 537.929 810.566 510.064 805.5 487.864L805.5 487.863C804.943 485.424 804.402 483.054 803.858 480.764C799.405 462.022 787.106 442.422 775.474 423.885C772.751 419.545 770.064 415.264 767.524 411.066ZM1078.54 773.111C1092.85 772.171 1084.48 753.952 1078.51 744.96C1071.2 732.888 1053.08 706.631 1039.04 698.182C1028.15 691.628 1025.81 684.995 1022.63 676.001C1020.68 670.501 1018.43 664.119 1013.71 656.332C1001.29 635.809 991.11 662.002 1009.09 680.305C1021.19 692.612 1026.04 703.286 1030.74 713.606C1033.03 718.637 1035.28 723.583 1038.32 728.594C1039.88 731.184 1041.56 734.208 1043.35 737.438L1043.35 737.439C1052.14 753.279 1063.68 774.088 1078.54 773.111ZM874.717 272.998C877.683 320.92 877.025 342.661 851.74 360.581C837.023 371.011 839.846 386.929 842.724 403.157C844.791 414.811 846.887 426.625 842.533 436.68C832.119 460.735 817.478 456.737 809.159 448.258C805.826 444.861 801.358 434.515 796.137 422.424C788.325 404.335 778.827 382.339 768.916 373.855C761.316 367.35 750.319 365.802 739.434 364.27C726.635 362.468 713.989 360.688 707.201 350.894C694.64 332.772 697.042 308.645 705.426 308.453C707.861 308.397 711.389 309.261 715.457 310.258C725.401 312.695 738.569 315.921 746.85 308.42C748.8 306.654 751.283 304.542 754.068 302.172C767.954 290.362 789.37 272.145 789.885 258.371C790.504 241.833 855.13 189.707 874.717 272.998Z" fill="#151515"/>
<path fill-rule="evenodd" clip-rule="evenodd" d="M1111.11 626.749C1097.38 617.238 1063.24 590.145 1036.48 557.856C1003.02 517.495 983.232 499.726 941.455 487.76C899.677 475.795 897.825 447.272 906.24 429.57C914.655 411.868 935.74 372.959 960.824 359.094C985.908 345.23 1011.6 353.437 1017.78 375.952C1021.53 389.607 1009.59 397.661 996.551 406.444C988.093 412.144 979.179 418.151 973.802 426.196C960.139 446.64 1007.64 475.09 1023.28 481.615C1029.21 484.09 1034.55 491.905 1040.95 501.259C1051.41 516.57 1064.69 536.001 1087.98 542.874C1111.62 549.85 1129.68 530.88 1152.54 506.86C1165.97 492.755 1181.06 476.909 1199.91 463.551C1250.85 427.447 1333.38 458.464 1348.71 483.794C1353.49 491.703 1358.54 503.292 1363.9 515.614C1375.72 542.754 1389.08 573.449 1404.64 576.214C1427.26 580.234 1445.13 658.053 1396.54 656.783C1375.36 656.229 1355.44 645.579 1335.16 634.735C1308.92 620.706 1282.07 606.353 1251.11 613.125C1240.75 615.391 1230.18 617.96 1219.69 620.511C1174.58 631.482 1130.86 642.114 1111.11 626.749ZM1135.23 604.273C1126.05 604.909 1108.58 602.909 1112.14 589.823C1116.59 573.466 1129.85 561.135 1141.63 554.256C1145.35 552.078 1153.31 543.421 1163.16 532.705C1184.43 509.575 1214.51 476.847 1229.94 478.946C1235.8 479.742 1242.81 479.156 1250.41 478.521C1272.15 476.706 1298.72 474.487 1316.77 503.007C1326.63 518.59 1333.74 532.512 1339.98 544.716C1349.15 562.659 1356.42 576.887 1367.72 587.212C1386.72 604.56 1372.35 622.081 1340.95 606.186C1331.94 601.626 1324.3 596.941 1317.37 592.696C1300.17 582.149 1287.4 574.321 1269.09 577.878C1259.66 579.711 1248.35 582.813 1236.88 585.957C1217.13 591.371 1196.93 596.909 1185.13 596.298C1170.21 595.524 1145.65 601.292 1135.23 604.273Z" fill="#151515"/>
<path fill-rule="evenodd" clip-rule="evenodd" d="M1268.29 440.459C1252.34 443.931 1238.05 447.04 1224.5 447.04C1212.4 447.04 1203.88 451.999 1196.08 456.543C1182.29 464.577 1170.73 471.312 1145.5 447.04C1131.17 433.256 1120.59 418.353 1110.95 404.766C1094.01 380.897 1079.95 361.089 1053.5 358.54C1051.59 358.356 1049.73 358.184 1047.92 358.018L1047.87 358.012L1047.86 358.012C1010.51 354.567 995.756 353.206 1001 285.04C1006.5 213.54 972.5 185.04 927.5 185.04C917.962 185.04 907.459 185.557 897.099 186.066C858.578 187.961 822.04 189.758 844.5 164.54C857.19 150.291 875.73 148.335 894.071 146.4C916.92 143.99 939.46 141.612 950 115.54C958.948 93.4044 953.923 72.1561 950.071 55.8692C945.743 37.5745 942.897 25.54 963 25.54C975.474 25.54 992.419 34.3758 1012.4 44.7963C1053.3 66.1206 1106.92 94.0814 1161 66.54C1188.32 52.6271 1205.04 40.3263 1218.16 30.6731C1243.71 11.8793 1255.62 3.12106 1305.5 12.04C1334.23 17.177 1366.43 15.4362 1394.9 13.8977C1441.23 11.393 1477.65 9.42458 1473 38.54C1469.49 60.5489 1453.59 72.2516 1439.62 82.5302C1423.76 94.2016 1410.4 104.037 1420.5 125.04C1427.55 139.705 1436.61 147.892 1445.2 155.665C1459.76 168.827 1473 180.802 1473 221.04C1473 242.817 1475.14 267.199 1477.24 291.074C1481.31 337.365 1485.21 381.748 1473 401.54C1458.2 425.54 1386.5 431.54 1352.5 431.54C1318.86 429.456 1291.77 435.35 1268.29 440.459ZM1438 239.04C1442.33 218.707 1444.2 175.74 1417 166.54C1413.87 165.481 1410.7 164.367 1407.5 163.246L1407.5 163.245L1407.5 163.244C1376.01 152.19 1342.57 140.449 1328.5 174.04C1313 211.04 1273.5 296.04 1227.5 295.04C1215.75 294.784 1201.05 293.517 1185.75 292.197C1141.16 288.35 1091.39 284.056 1094 303.04C1096.93 324.407 1110.05 336.296 1128.93 353.413L1128.93 353.414L1128.93 353.415C1132.58 356.726 1136.45 360.232 1140.5 364.04C1151.39 374.272 1152.89 387.348 1154.21 398.851C1155.92 413.768 1157.33 426.04 1178.5 426.04C1197.19 426.04 1213.27 417.968 1229.16 409.993C1245.15 401.966 1260.94 394.038 1279 394.54C1293.66 394.947 1308.9 397.261 1324.24 399.591C1346.59 402.984 1369.16 406.411 1390.5 404.04C1392.58 403.809 1394.63 403.589 1396.63 403.374C1429.3 399.865 1451.44 397.488 1450.5 364.04C1449.7 335.64 1441.83 268.873 1438 239.04ZM1335 124.54C1319 126.14 1308 146.207 1304.5 156.04C1295.5 163.538 1289.35 164.611 1283.96 165.551C1276.77 166.805 1270.93 167.823 1261.5 183.54C1254.73 194.817 1252.76 204.749 1250.82 214.508C1248.03 228.547 1245.31 242.227 1228.5 259.04C1212.48 275.055 1202.31 272.755 1180.59 267.845C1163.66 264.017 1139.71 258.602 1100.5 259.04C1011 260.04 1097.5 238.04 1160.5 230.54C1210.32 224.609 1211.67 208.362 1213.52 186.247C1214.01 180.394 1214.54 174.131 1216 167.54C1220.56 147.036 1243.33 136.277 1264.75 126.161C1276.23 120.737 1287.32 115.498 1295 109.04C1298.21 106.339 1301.2 103.958 1303.89 101.817L1303.89 101.816C1319.6 89.2939 1325 84.9956 1304.5 73.04C1289.5 64.2872 1276.84 71.951 1262.49 80.636C1253.89 85.8427 1244.68 91.4164 1234 94.04C1205.5 101.04 1197 87.04 1202.5 62.54C1205.73 48.1388 1221.06 44.4485 1239.14 40.0959C1251.81 37.0436 1265.84 33.6656 1278 26.04C1293.24 16.4796 1297.54 21.741 1303.51 29.0582C1309.1 35.9003 1316.15 44.54 1335 44.54C1348.61 44.54 1361.79 43.6876 1374.36 42.8752C1397.8 41.3594 1419.1 39.9826 1437 44.54C1452.25 48.4223 1443.05 53.8427 1429.35 61.91C1418.35 68.3884 1404.46 76.5736 1398 87.04C1383.5 110.54 1355 122.54 1335 124.54ZM1040.55 231.542C1051.77 224.939 1057.41 221.62 1084.5 219.04C1116 216.04 1161 211.04 1168 193.04C1170.11 187.625 1171.44 181.441 1172.81 175.101C1176 160.363 1179.37 144.78 1193 136.04C1201.27 130.737 1216.3 127.234 1228.68 124.347C1245.48 120.429 1257.41 117.646 1241 113.04C1228.62 109.565 1216.62 112.316 1206.59 114.615C1193.54 117.608 1183.83 119.833 1181 106.54C1176 83.04 1170.5 82.04 1152.5 83.04C1146.21 83.3895 1142.18 87.0371 1137.78 91.0157C1129.6 98.4207 1120.15 106.972 1092.5 97.54C1079.4 93.0696 1065.82 86.6982 1052.97 80.6675C1024.13 67.1374 998.955 55.3227 991 70.54C985.176 81.6824 989.355 90.6445 993.276 99.0502C997.096 107.241 1000.67 114.903 994.5 123.54C987.982 132.665 976.026 139.751 966.075 145.649C956.943 151.061 949.5 155.472 949.5 159.54C949.5 168.04 999 195.04 1022 174.54C1032.77 164.941 1027.86 155.891 1024.12 148.979C1019.86 141.13 1017.1 136.04 1040.5 136.04C1061.09 136.04 1071.83 141.515 1080.03 145.7C1089.37 150.46 1095.43 153.553 1109 145.04C1111.17 143.675 1113.38 142.271 1115.59 140.863C1139.31 125.772 1163.48 110.397 1152.5 141.04C1140.5 174.54 1136.5 185.04 1105 189.04C1091.13 190.802 1079.58 188.005 1069.85 185.647C1057.49 182.652 1048.05 180.367 1040.5 189.04C1027 204.54 1003 235.04 1015 235.04H1034.5C1036.74 233.779 1038.72 232.617 1040.55 231.542Z" fill="#151515"/>
<path fill-rule="evenodd" clip-rule="evenodd" d="M51.7595 916.401C66.2773 935.393 83.853 958.384 140.5 956.04C176.685 954.543 201.037 958.775 221.514 962.333C242.065 965.905 258.713 968.798 279.5 964.54C299.585 960.426 312.877 962.285 327.538 964.336C343.171 966.522 360.36 968.926 389 964.54C444.5 956.04 455.5 956.04 495.5 956.04C535.5 956.04 571 893.54 524 902.04C504.117 905.636 492.108 910.932 481.652 915.543C467.392 921.832 456.02 926.848 431.5 924.54C422.756 923.717 411.113 923.529 398.073 923.318C347.729 922.505 276.56 921.356 271 882.04C267.958 860.531 270.77 847.235 273.527 834.195C277.116 817.224 280.613 800.686 271 767.04C264.844 745.494 266.818 726.833 268.351 712.339C271.052 686.807 272.385 674.204 225.5 681.54C152 693.04 99.5 701.04 76.5 681.54C53.5 662.04 13.5 648.54 26.5 681.54C31.254 693.608 37.7465 702.8 43.4345 710.854C53.3006 724.823 60.7461 735.365 52.5001 751.54C48.8284 758.742 43.641 766.383 38.301 774.249C24.7345 794.232 10.1833 815.666 17.0001 835.04C24.6 856.64 35.1667 888.707 39.5 902.04C43.8732 906.085 47.6966 911.087 51.7595 916.401ZM85.5 910.04C95 920.707 119.7 942.04 142.5 942.04H207.5C216.657 942.04 227.181 944.317 237.976 946.654C254.886 950.313 272.462 954.117 286.5 949.54C302.361 944.368 314.417 946.329 324.965 948.045C329.713 948.817 334.154 949.54 338.5 949.54C352.5 949.54 432 935.54 327 929.04C227.644 922.889 234.391 878.237 237.098 860.322C237.252 859.305 237.392 858.373 237.5 857.54C238.043 853.333 240.574 844.819 243.495 834.993C251.337 808.614 261.987 772.789 244.5 785.54C220.5 803.04 190.5 835.54 199 857.54C202.168 865.74 214.229 877.276 224.876 887.458C242.792 904.593 256.703 917.899 217.5 905.04C186.407 894.841 174.866 902.462 165.147 908.88C155.33 915.363 147.372 920.618 123 905.04C84.2 880.24 81.8333 898.04 85.5 910.04ZM148.5 880.54C131.3 880.54 119.333 876.207 115.5 874.04C113.833 868.207 111.5 850.94 115.5 828.54C118.319 812.756 128.446 808.253 143.017 801.775C154.293 796.761 168.231 790.564 183.5 777.04C218.5 746.04 221 741.04 198 741.04C190.097 741.04 184.851 741.276 179.766 741.505C170.052 741.942 160.928 742.353 135 741.04C107.829 739.664 103.843 752.484 98.6319 769.245C96.2672 776.851 93.6501 785.269 88.5 793.54C77.2764 811.566 80.3964 822.42 84.1691 835.544C85.9426 841.714 87.8604 848.386 88.5 856.54C90.0895 876.806 78.731 875.913 63.2089 874.692C59.1999 874.377 54.9132 874.04 50.5001 874.04C34.4769 874.04 41.2258 856.267 49.2224 835.208L49.2225 835.207C51.9558 828.009 54.8348 820.427 57.0001 813.04C60.0291 802.705 61.5343 796.244 62.6695 791.371C64.72 782.569 65.5637 778.947 72.0001 767.04C76.6623 758.415 83.4981 753.594 90.3288 748.776C98.1492 743.26 105.963 737.749 110.5 726.54C116.247 712.341 131.595 715.971 151.752 720.74C161.407 723.023 172.165 725.568 183.5 726.54C206.485 728.51 215.454 723.149 226.974 716.262C232.997 712.661 239.716 708.644 249.5 705.04C278 694.54 239.5 756.54 221 772.04C212.335 779.3 207.18 784.037 201.528 789.231L201.528 789.231C195.112 795.126 188.056 801.61 174.5 813.04C154.745 829.696 165.598 845.451 178.233 863.794C181.908 869.129 185.733 874.682 189 880.54C197.847 896.403 188.826 892.91 175.565 887.774C167.09 884.492 156.883 880.54 148.5 880.54ZM450.5 944.04C453.833 945.707 465.5 948.04 485.5 944.04C510.5 939.04 541.5 918.04 513.5 923.04C485.5 928.04 451 934.04 430.5 935.04C410 936.04 393.5 952.04 409.5 950.54C422.3 949.34 442.167 945.707 450.5 944.04Z" fill="#151515"/>
<path fill-rule="evenodd" clip-rule="evenodd" d="M800.069 736.844C794.235 730.177 770.169 718.844 720.569 726.844C697.331 730.592 686.033 734.34 677.91 737.035C664.361 741.53 659.642 743.096 623.069 736.844C600.162 732.928 576.948 722.802 556.91 714.062C525.775 700.481 502.307 690.245 499.569 711.844C497.821 725.633 500.977 738.669 504.113 751.623C509.051 772.019 513.94 792.216 499.569 814.844C491.751 827.152 479.342 839.073 468.543 849.447C446.877 870.258 431.693 884.845 473.069 883.844C488.896 883.461 504.594 882.133 519.661 880.858C563.617 877.14 602.217 873.875 623.069 895.844C627.538 900.553 631.498 905.109 635.248 909.423C654.986 932.133 668.886 948.125 720.569 944.344C758.996 941.532 791.371 942.234 833.917 943.156C859.464 943.71 888.677 944.344 925.069 944.344C969.63 944.344 1008.81 949.831 1042.17 954.503C1081.43 960.002 1112.63 964.372 1135.07 957.344C1176.57 944.344 1237.07 926.344 1284.07 935.344C1298.3 938.068 1310.88 942.259 1322.36 946.085C1348.81 954.898 1369.45 961.776 1391.07 944.344C1393.09 942.713 1395.19 941.042 1397.34 939.328C1428.19 914.76 1470.19 881.322 1457.57 830.844C1453.01 812.604 1454.5 791.399 1455.86 771.89C1458.54 733.639 1460.77 701.91 1416.07 711.844L1416.07 711.844C1348.57 726.844 1258.57 746.844 1236.57 736.844C1229.29 733.537 1224.48 724.6 1219 714.425C1207.9 693.827 1194.07 668.154 1151.57 673.844C1124.34 677.488 1114.03 687.752 1104.03 697.697C1090.72 710.945 1077.98 723.628 1026.57 719.344C954.569 713.344 845.569 728.51 800.069 736.844ZM775.069 775.344C763.735 771.01 735.769 764.944 714.569 775.344C688.069 788.344 591.069 769.344 566.069 763.344C549.239 759.305 550.763 767.955 552.642 778.616C553.553 783.792 554.549 789.442 553.569 794.344C552.404 800.167 543.629 809.306 534.731 818.571C520.71 833.173 506.386 848.091 521.069 850.844C533.543 853.183 543.181 851.604 556.16 849.479C568.152 847.515 582.997 845.084 605.569 844.844C620.593 844.684 632.757 843.145 643.431 841.794C666.147 838.919 682.118 836.897 704.569 850.844C716.616 858.328 722.532 867.411 727.938 875.709C737.339 890.142 745.195 902.201 781.069 899.344C804.875 897.448 822.734 894.22 838.647 891.344C860.501 887.394 878.687 884.108 903.569 885.844C924.498 887.304 958.22 893.384 993.262 899.702C1030.21 906.364 1068.64 913.291 1095.07 915.344C1126.6 917.793 1152.69 913.682 1173.81 910.356C1187.19 908.249 1198.57 906.456 1208.07 906.844C1219.48 907.31 1246.42 912.877 1274.06 918.589C1305.74 925.138 1338.35 931.878 1349.57 931.344C1370.57 930.344 1441.57 897.844 1439.07 861.344C1437.92 844.572 1435.72 829.912 1433.67 816.296C1431.26 800.28 1429.07 785.708 1429.07 770.844C1429.07 763.134 1430.21 755.896 1431.18 749.747C1433.66 733.961 1435.02 725.348 1413.07 734.344C1404.32 737.929 1396.52 745.092 1387.79 753.108C1366.08 773.043 1338.62 798.255 1276.57 786.844C1235.02 779.202 1223.46 751.258 1214.12 728.67C1203.9 703.964 1196.34 685.665 1155.07 707.344C1123.53 723.909 1109.61 739.44 1098.97 751.294C1082.97 769.138 1074.44 778.655 1024.57 770.844C941.569 757.844 893.069 763.844 851.069 775.344C817.469 784.544 786.402 779.177 775.069 775.344Z" fill="#151515"/>
<path fill-rule="evenodd" clip-rule="evenodd" d="M786.935 813.05C775.377 808.265 761.842 802.662 743.068 805.344C717.582 808.985 699.107 807.805 680.102 806.592C670.397 805.972 660.554 805.344 649.568 805.344C617.068 805.344 578.568 822.344 639.568 822.344C674.202 822.344 689.171 828.63 703.42 834.613C714.268 839.168 724.698 843.547 743.068 844.844C770.202 846.759 791.63 846.229 817.24 845.595C831.743 845.236 847.587 844.844 866.568 844.844C891.072 844.844 908.495 851.924 925.702 858.915C945.362 866.903 964.739 874.777 994.068 871.844C1049.07 866.344 1093.07 864.844 1164.07 871.844C1195.44 874.937 1214.03 878.91 1230.27 882.38C1250.77 886.762 1267.53 890.344 1301.57 890.344C1362.57 890.344 1390.07 890.344 1401.07 871.844C1404.07 866.787 1409.21 861.432 1414.28 856.146C1427.76 842.09 1440.77 828.521 1412.07 822.344C1385.91 816.714 1354.26 818.542 1321.78 820.418C1305.22 821.375 1288.44 822.344 1272.07 822.344C1248.02 822.344 1241.55 808.326 1235.59 795.413C1229.53 782.287 1224 770.303 1201.07 775.344C1184.75 778.93 1171.27 783.802 1158.05 788.576C1134.41 797.116 1111.63 805.344 1075.07 805.344C1050.68 805.344 1029.49 800.216 1009.78 795.446C983.436 789.07 959.738 783.335 934.568 791.344C932.732 791.928 930.902 792.512 929.077 793.093C887.184 806.447 848.295 818.844 807.568 818.844C800.931 818.844 794.338 816.115 786.935 813.05ZM1354.07 853.844C1362.9 848.177 1376.17 837.044 1358.57 837.844C1346 838.415 1342.9 838.334 1336.21 838.159C1331.19 838.028 1324.15 837.844 1309.57 837.844C1297.2 837.844 1285.69 839.763 1275.23 841.507C1256.95 844.556 1241.88 847.068 1231.07 837.844C1225.82 833.371 1222.77 828.185 1219.95 823.4C1213.63 812.673 1208.5 803.966 1182.57 809.844C1164.56 813.925 1148.98 820.541 1135.38 826.317C1120.64 832.573 1108.23 837.844 1097.57 837.844C1087.91 837.844 1070.69 832.956 1053.04 827.945C1033.24 822.325 1012.91 816.551 1002.07 817.344C998.114 817.633 993.044 817.774 987.519 817.927C964.394 818.568 933.286 819.43 942.568 832.344C951.731 845.091 959.941 844.826 979.589 844.192C984.602 844.03 990.36 843.844 997.068 843.844C1015.03 843.844 1027.37 844.881 1040.53 845.988C1051.54 846.914 1063.12 847.888 1079.07 848.344C1089.13 848.631 1098 849.126 1106.1 849.577C1126.15 850.695 1141.47 851.55 1158.57 848.344C1160.26 848.026 1161.89 847.714 1163.46 847.412C1184.19 843.435 1195.33 841.296 1218.57 853.844C1243.57 867.344 1303.57 874.844 1323.07 864.344C1338.67 855.944 1350.23 853.844 1354.07 853.844Z" fill="#151515"/>
</svg>
