<svg width="622" height="599" viewBox="0 0 622 599" fill="none" xmlns="http://www.w3.org/2000/svg">
<path d="M621.887 420.286C618.754 526.179 519.805 582.986 470.723 598.39L451.142 512.708L407.281 350.578C418.507 332.303 449.576 293.089 484.038 282.437C527.116 269.122 625.803 287.92 621.887 420.286Z" fill="#FFA841"/>
<path d="M451.142 512.708C490.304 498.609 564.711 459.448 549.046 415.587C536.514 385.041 511.451 389.74 503.619 393.656C494.22 398.356 486.388 424.202 511.451 424.202" stroke="black" stroke-width="7.83233"/>
<path d="M362.637 303.111C331.307 278.048 296.845 231.054 283.53 210.69L209.906 244.369L205.99 598.39H470.723C480.122 582.725 500.642 532.911 491.87 480.905C480.905 415.897 401.798 334.44 362.637 303.111Z" fill="#FFA841"/>
<path d="M44.6443 598.39C-10.4953 451.769 43.6 299.717 77.54 242.019L295.279 194.242C272.826 231.054 227.921 314.703 227.921 354.804C227.921 404.931 252.984 417.463 253.767 479.338C254.394 528.839 236.797 579.331 227.921 598.39H44.6443Z" fill="white"/>
<path d="M256.117 266.299C160.876 291.363 90.0718 274.131 66.5748 262.383C68.4545 259.25 78.8454 240.191 83.8059 231.054L285.097 211.473L256.117 266.299Z" fill="#EFEFEF"/>
<path d="M33.9946 93.0144C16.7111 54.6995 27.862 25.1281 35.5978 15.1317C69.1858 12.5843 82.6152 42.9799 85.1314 58.4962L33.9946 93.0144Z" fill="white"/>
<path d="M35.5978 15.1317C70.8614 8.9388 98.3929 32.8655 107.751 45.603L84.3713 58.6853C74.8328 25.5457 47.8813 15.8414 35.5978 15.1317Z" fill="#FFA841"/>
<path d="M284.638 93.1477C301.052 54.4523 289.236 25.1402 281.276 15.3211C247.639 13.5329 234.9 44.2241 232.735 59.7932L284.638 93.1477Z" fill="white"/>
<path d="M281.276 15.3211C245.882 9.92618 218.898 34.4686 209.83 47.4142L233.499 59.9651C242.287 26.6186 269.012 16.308 281.276 15.3211Z" fill="#FFA841"/>
<ellipse cx="159.779" cy="130.8" rx="148.814" ry="93.2047" fill="#FFA841"/>
<path d="M197.528 98.6983C171.829 99.2466 159.936 138.673 157.202 158.318H140.115C141.938 138.445 139.705 98.6983 116.193 98.6983C86.8031 98.6983 92.9545 126.795 60.8305 132.277C35.1313 136.663 9.56885 132.277 0 129.536C1.82264 174.079 35.8148 263.166 157.202 263.166C278.59 263.166 321.24 174.079 327.391 129.536C313.949 131.363 281.324 134.47 258.359 132.277C229.652 129.536 229.652 98.013 197.528 98.6983Z" fill="white"/>
<path d="M220.872 129.233C220.872 129.233 210.001 142.548 196.591 142.548C183.182 142.548 172.311 129.233 172.311 129.233C172.311 129.233 183.182 115.918 196.591 115.918C210.001 115.918 220.872 129.233 220.872 129.233Z" fill="black"/>
<circle cx="190.326" cy="126.1" r="5.48263" fill="white"/>
<path d="M133.15 129.233C133.15 129.233 122.279 142.548 108.869 142.548C95.4598 142.548 84.5891 129.233 84.5891 129.233C84.5891 129.233 95.4598 115.918 108.869 115.918C122.279 115.918 133.15 129.233 133.15 129.233Z" fill="black"/>
<circle cx="102.603" cy="126.1" r="5.48263" fill="white"/>
<path d="M169.062 165.124C166.092 160.48 150.911 155.449 143.691 153.514C138.741 155.449 124.199 159.964 121.414 165.124C116.889 173.509 119.748 179.653 122.652 183.184C126.365 187.699 136.678 193.72 143.691 197.375C149.054 195.44 161.265 190.408 167.206 185.764C174.632 179.959 172.775 170.929 169.062 165.124Z" fill="black"/>
<path d="M132.366 184.843V191.109L143.332 197.375L155.863 191.892V173.094C158.213 171.528 165.262 175.444 155.863 185.626M132.366 184.843V173.094C130.539 172.833 127.04 173.408 127.667 177.794C128.293 182.18 131.061 184.321 132.366 184.843Z" stroke="white" stroke-width="3.13293" stroke-linejoin="round"/>
</svg>
